<svg width="280" height="451" viewBox="0 0 280 451" fill="none" xmlns="http://www.w3.org/2000/svg">
<rect width="280" height="451" rx="16" fill="#FFE816"/>
<g clip-path="url(#clip0_4237_212152)">
<path d="M150.375 254.216C150.375 284.718 125.673 309.432 95.1874 309.432C64.7015 309.432 40 284.718 40 254.216C40 223.714 64.7015 199 95.1874 199C125.673 199 150.375 223.714 150.375 254.216Z" fill="#E53E51"/>
<path d="M384.841 332.648V355.001C380.031 354.883 375.486 353.76 371.384 351.812C360.11 346.467 352.319 334.981 352.319 321.694V276.694C352.319 270.523 347.331 265.533 341.163 265.533C335.025 265.533 330.008 270.523 330.008 276.694V296.389C330.008 296.507 330.008 322.964 330.008 322.964C329.713 332.383 325.493 340.798 318.941 346.644C313.098 351.841 305.395 355.001 296.954 355.001H296.394C291.318 355.001 286.478 353.849 282.169 351.812C270.984 346.497 263.222 335.158 263.104 321.989V276.694C263.104 270.523 258.117 265.533 251.949 265.533C245.81 265.533 240.793 270.523 240.793 276.694V296.389C240.793 296.507 240.793 322.964 240.793 322.964C240.498 332.383 236.278 340.798 229.726 346.644C223.883 351.841 216.18 355.001 207.74 355.001H207.179C202.073 355.001 197.263 353.849 192.925 351.812C181.651 346.467 173.86 334.981 173.86 321.694V276.694C173.86 270.523 168.872 265.533 162.704 265.533C156.566 265.533 151.578 270.523 151.578 276.694V296.389C151.578 296.507 151.578 322.964 151.578 322.964C151.283 332.383 147.063 340.798 140.511 346.644C134.668 351.841 126.965 355.001 118.525 355.001H117.964C99.5783 355.001 84.6748 340.089 84.6748 321.694V254.431C84.6748 248.26 89.6623 243.27 95.8303 243.27C101.88 243.27 106.809 248.112 106.986 254.136V321.576C106.986 327.747 111.973 332.708 118.141 332.708C124.309 332.708 129.297 327.717 129.297 321.576L129.326 275.336C129.622 265.917 133.842 257.502 140.393 251.655C146.237 246.458 153.939 243.299 162.38 243.299H162.941C168.076 243.299 172.916 244.451 177.254 246.518C188.468 251.862 196.23 263.319 196.23 276.606V321.605C196.23 327.776 201.218 332.737 207.386 332.737C213.524 332.737 218.512 327.747 218.512 321.605L218.541 275.366C218.836 265.946 223.056 257.531 229.608 251.685C235.451 246.488 243.154 243.329 251.595 243.329H252.155C257.29 243.329 262.13 244.48 266.469 246.547C277.624 251.862 285.327 263.2 285.445 276.34V321.635C285.445 327.806 290.432 332.767 296.6 332.767C302.739 332.767 307.756 327.776 307.756 321.635L307.785 275.395C308.051 265.976 312.301 257.561 318.852 251.714C324.696 246.518 332.398 243.358 340.839 243.358H341.4C346.535 243.358 351.375 244.51 355.713 246.577C366.927 251.921 374.689 263.378 374.689 276.665V321.664C374.63 327.393 379.116 332.176 384.841 332.648Z" fill="white"/>
<path d="M106.986 254.282C106.986 260.454 101.998 265.444 95.8303 265.444C89.6623 265.444 84.6748 260.454 84.6748 254.282C84.6748 248.111 89.6623 243.121 95.8303 243.121C101.998 243.121 106.986 248.141 106.986 254.282Z" fill="#FFE816"/>
</g>
<defs>
<clipPath id="clip0_4237_212152">
<rect width="240" height="156" fill="white" transform="translate(40 199)"/>
</clipPath>
</defs>
</svg>
