<svg width="280" height="451" viewBox="0 0 280 451" fill="none" xmlns="http://www.w3.org/2000/svg">
<rect width="280" height="451" rx="16" fill="black"/>
<g clip-path="url(#clip0_4237_212179)">
<path d="M287 186.5C355.483 186.5 411 130.983 411 62.5C411 -5.98331 355.483 -61.5 287 -61.5C218.517 -61.5 163 -5.98331 163 62.5C163 130.983 218.517 186.5 287 186.5Z" fill="#E53E51"/>
<path d="M197.6 -62H241.9C246 -62 249.2 -58.7 249.2 -54.7C249.2 -50.6 245.9 -47.4 241.9 -47.4H197.7C193.5 -47.4 190.1 -43.8 190.4 -39.6C190.7 -35.7 194.1 -32.7 198 -32.7H227.4C239.5 -32.7 249.3 -22.9 249.3 -10.8V-10.6C249.3 1.5 239.5 11.3 227.4 11.3H198C194.1 11.3 190.7 14.3 190.4 18.2C190.1 22.5 193.5 26 197.7 26H227.4C239.5 26 249.3 35.8 249.3 47.9V48.1C249.3 60.2 239.5 70 227.4 70H197.8C193.6 70 190.2 73.6 190.5 77.8C190.8 81.7 194.2 84.7 198.1 84.7H227.4C239.5 84.7 249.3 94.5 249.3 106.6V106.8C249.3 118.9 239.5 128.7 227.4 128.7H198C194.1 128.7 190.7 131.7 190.4 135.6C190.1 139.9 193.5 143.4 197.7 143.4H227.4C239.5 143.4 249.3 153.2 249.3 165.3V165.5C249.3 177.6 239.5 187.4 227.4 187.4H205.3C201.2 187.4 198 184.1 198 180.1C198 176.1 201.2 172.9 205.1 172.7H227.3C231.4 172.7 234.6 169.4 234.6 165.4C234.6 161.3 231.3 158.1 227.3 158.1H197.7C185.6 158.1 175.8 148.3 175.8 136.2V136C175.8 123.9 185.6 114.1 197.7 114.1H227.1C231 114.1 234.4 111.2 234.7 107.3C235 103 231.6 99.5 227.4 99.5H197.8C185.7 99.5 175.9 89.7 175.9 77.6V77.4C175.9 65.3 185.7 55.5 197.8 55.5H227.4C231.5 55.5 234.7 52.2 234.7 48.2C234.7 44.1 231.4 40.9 227.4 40.9H197.8C185.7 40.9 175.9 31.1 175.9 19V18.8C175.9 6.7 185.7 -3.1 197.8 -3.1H227.2C231.1 -3.1 234.5 -6 234.8 -9.9C235.1 -14.2 231.7 -17.7 227.5 -17.7H197.9C185.8 -17.7 176 -27.5 176 -39.6V-39.8C175.7 -52.2 185.5 -62 197.6 -62Z" fill="white"/>
<path d="M205.25 187.4C209.309 187.4 212.6 184.109 212.6 180.05C212.6 175.991 209.309 172.7 205.25 172.7C201.191 172.7 197.9 175.991 197.9 180.05C197.9 184.109 201.191 187.4 205.25 187.4Z" fill="#FFE816"/>
</g>
<defs>
<clipPath id="clip0_4237_212179">
<path d="M163 0H264C272.837 0 280 7.16344 280 16V187H163V0Z" fill="white"/>
</clipPath>
</defs>
</svg>
