<svg width="280" height="451" viewBox="0 0 280 451" fill="none" xmlns="http://www.w3.org/2000/svg">
<rect width="280" height="451" rx="16" fill="#E53E51"/>
<g clip-path="url(#clip0_4237_212114)">
<path d="M127.826 207.885L127.798 242.169C127.487 252.117 123.05 260.992 116.126 267.182C109.965 272.665 101.825 276 92.9224 276H92.3289C86.959 276 81.8435 274.785 77.2933 272.637C65.3948 266.984 57.1704 254.887 57.1704 240.84V193.358C57.1704 186.857 51.9136 181.6 45.4132 181.6C38.9129 181.6 33.6561 186.857 33.6561 193.358L33.6278 242.169C33.3452 252.117 28.8797 260.992 21.9554 267.182C15.7942 272.665 7.65464 276 -1.24803 276H-1.84154C-21.2578 276 -37 260.257 -37 240.84V169.814C-37 163.314 -31.7149 158.028 -25.2146 158.028C-18.8273 158.028 -13.627 163.144 -13.4291 169.475V240.642C-13.4291 247.143 -8.17232 252.4 -1.67197 252.4C4.82839 252.4 10.0852 247.143 10.0852 240.642L10.1135 191.831C10.4244 181.883 14.8616 173.008 21.7858 166.818C27.9471 161.335 36.0866 158 44.9893 158H45.5828C50.9809 158 56.1247 159.215 60.7032 161.42C72.5452 167.073 80.7413 179.169 80.7413 193.16V240.642C80.7413 247.143 85.9981 252.4 92.4984 252.4C98.9988 252.4 104.256 247.143 104.256 240.642V207.857H127.826V207.885Z" fill="white"/>
<path d="M279.85 252.372V275.972C274.763 275.859 269.959 274.672 265.663 272.608C253.764 266.984 245.54 254.859 245.54 240.812V193.329C245.54 186.829 240.283 181.572 233.783 181.572C227.282 181.572 222.025 186.829 222.025 193.329L221.997 242.14C221.715 252.089 217.249 260.964 210.325 267.154C204.164 272.637 196.052 275.972 187.121 275.972H186.528C181.158 275.972 176.071 274.756 171.492 272.608C159.679 267.012 151.482 255.028 151.369 241.123V193.329C151.369 186.829 146.113 181.572 139.612 181.572C133.112 181.572 127.855 186.829 127.855 193.329V207.857H104.312V191.831C104.595 181.883 109.061 173.008 115.985 166.818C122.146 161.335 130.286 158 139.188 158H139.782C145.18 158 150.324 159.215 154.902 161.42C166.659 167.044 174.827 178.971 174.94 192.849V240.642C174.94 247.143 180.197 252.4 186.697 252.4C193.198 252.4 198.455 247.143 198.455 240.642L198.483 191.831C198.766 181.883 203.231 173.008 210.155 166.818C216.316 161.335 224.456 158 233.359 158H233.952C239.379 158 244.494 159.215 249.073 161.42C260.886 167.101 269.082 179.169 269.082 193.188V240.671C269.082 246.804 273.831 251.863 279.85 252.372Z" fill="#010202"/>
<path d="M127.827 207.8C127.827 214.3 122.542 219.585 116.041 219.585C109.541 219.585 104.256 214.3 104.256 207.8C104.256 201.299 109.541 196.014 116.041 196.014C122.542 196.042 127.827 201.299 127.827 207.8Z" fill="#E53E51"/>
</g>
<defs>
<clipPath id="clip0_4237_212114">
<rect width="280" height="118" fill="white" transform="translate(0 158)"/>
</clipPath>
</defs>
</svg>
