<svg width="643" height="104" viewBox="0 0 643 104" fill="none" xmlns="http://www.w3.org/2000/svg">
<g clip-path="url(#clip0_4199_208438)">
<path d="M56.5733 103.579L57.7603 103.377L58.2189 103.269C58.5697 103.269 58.8934 103.134 59.2171 103.053L59.5948 102.945L60.8628 102.581C61.3484 102.419 61.834 102.284 62.2927 102.095C63.2151 101.775 64.1162 101.397 64.9905 100.962C65.5003 100.756 65.996 100.517 66.4743 100.247C71.3705 97.5796 75.4577 93.6422 78.3062 88.8485C81.1546 84.0548 82.6591 78.5819 82.6612 73.0054V31.1787C82.6612 30.9223 82.6612 30.6525 82.6612 30.3961C82.787 28.7921 83.2858 27.2396 84.1181 25.8627C84.3886 25.3868 84.7001 24.9353 85.0488 24.5134V24.5134C85.2188 24.3026 85.4036 24.1042 85.6019 23.9197C86.5586 22.9208 87.7085 22.127 88.9816 21.5866C90.2547 21.0461 91.6244 20.7703 93.0074 20.776C93.3444 20.7563 93.6822 20.7563 94.0191 20.776C94.3833 20.776 94.761 20.8704 95.1117 20.9379C97.1054 21.3153 98.9336 22.3003 100.346 23.7578C101.289 24.7399 102.028 25.9004 102.517 27.1714C102.794 27.7792 102.998 28.4179 103.124 29.0739C103.264 29.776 103.336 30.4898 103.34 31.2057V73.0324C103.335 77.3997 104.258 81.7183 106.046 85.7026C107.834 89.6869 110.447 93.2461 113.713 96.145C115.537 97.7125 117.512 99.0954 119.608 100.274C120.957 100.908 122.306 101.623 123.736 102.122L124.073 102.244V30.5311C124.073 30.4231 124.073 30.3017 124.073 30.1937C123.917 22.2403 120.684 14.6571 115.054 9.03844C109.424 3.41974 101.836 0.203202 93.8842 0.0650473C93.7091 0.0512342 93.5332 0.0512342 93.3581 0.0650473H92.6027C92.4276 0.0516145 92.2518 0.0516145 92.0767 0.0650473C84.2004 0.192576 76.675 3.3461 71.0599 8.8722C65.4447 14.3983 62.1703 21.8734 61.915 29.7485V72.8435C61.915 73.1268 61.915 73.3832 61.915 73.68C61.9003 73.8704 61.8732 74.0597 61.834 74.2467C61.8176 74.4841 61.777 74.7192 61.7126 74.9483C61.6662 75.223 61.5985 75.4936 61.5103 75.7578C61.4984 75.8835 61.4665 76.0065 61.4159 76.1221C61.3079 76.392 61.227 76.6348 61.1056 76.9047C60.9855 77.2102 60.8459 77.5077 60.6875 77.7952C60.5326 78.0879 60.3614 78.3717 60.1749 78.6452C60.0999 78.734 60.0322 78.8288 59.9725 78.9286L59.7567 79.2119C59.5588 79.4825 59.3376 79.7354 59.0957 79.9675L59.0148 80.0484L58.8934 80.1699C58.8934 80.1699 58.8125 80.2508 58.7855 80.2913L58.6506 80.4127L58.5427 80.5207L58.4078 80.6421H58.3403L58.2055 80.7501C58.1293 80.8331 58.0615 80.9235 58.0031 81.0199V81.0199C57.4894 81.4368 56.9333 81.7986 56.344 82.0993L55.7504 82.3692L55.5751 82.4501L55.3053 82.5041L54.9815 82.6255L54.6173 82.7469L54.3476 82.8279C53.8201 82.9708 53.2839 83.0789 52.7423 83.1517H52.6075C52.518 83.165 52.4271 83.165 52.3377 83.1517H51.5283C51.2585 83.1517 51.0023 83.1517 50.7325 83.1517C50.6385 83.1645 50.5432 83.1645 50.4492 83.1517H50.3143C49.777 83.0803 49.2451 82.9721 48.7226 82.8279C48.6348 82.809 48.549 82.7819 48.4663 82.7469C48.333 82.7164 48.2022 82.6758 48.0751 82.6255C47.91 82.5662 47.7479 82.4987 47.5895 82.4231L47.3872 82.3692C47.1713 82.2882 46.9825 82.1803 46.7802 82.0993C46.2028 81.7855 45.6523 81.4245 45.1345 81.0199C45.0784 80.9584 45.015 80.904 44.9456 80.858L44.8242 80.7501L44.514 80.4262C44.4593 80.3926 44.4094 80.3518 44.3656 80.3048C44.3277 80.2698 44.2958 80.2287 44.2712 80.1834V80.1834L44.1902 80.1024C44.1902 80.1024 44.1902 80.0349 44.1093 80.0215C43.868 79.7926 43.651 79.5394 43.4618 79.2659C43.3929 79.1656 43.3162 79.0709 43.2325 78.9825C43.1729 78.8828 43.1052 78.788 43.0302 78.6992C42.8425 78.4314 42.68 78.1469 42.5446 77.8492C42.3774 77.5621 42.2288 77.2647 42.0994 76.9587C41.9915 76.6888 41.8971 76.4325 41.8162 76.1761C41.7352 75.9197 41.7352 75.9602 41.6948 75.8118C41.6065 75.5476 41.5389 75.2769 41.4924 75.0023C41.4924 74.7594 41.4115 74.5165 41.3845 74.3007C41.3453 74.1137 41.3183 73.9244 41.3036 73.734C41.3036 73.4371 41.3036 73.1808 41.3036 72.8974V31.2462C41.3036 31.489 41.3036 31.7319 41.3036 31.9613V30.8009C41.317 30.5987 41.317 30.3959 41.3036 30.1937V30.1937C41.1462 22.2035 37.8835 14.5888 32.2075 8.96425C26.5315 3.33972 18.8884 0.147694 10.8991 0.0650473C10.7285 0.0512657 10.5571 0.0512657 10.3865 0.0650473V20.8435H11.0205C11.3847 20.8435 11.7759 20.9379 12.1131 21.0054C14.1083 21.3785 15.9376 22.3641 17.3469 23.8253C18.2976 24.7683 19.0498 25.8923 19.5591 27.131C19.8624 27.7486 20.0889 28.4011 20.2335 29.0739C20.3839 29.7746 20.4607 30.489 20.4629 31.2057V73.0324C20.451 77.3892 21.3621 81.6991 23.1361 85.6782C24.9101 89.6573 27.5068 93.2153 30.7551 96.118C32.5817 97.6881 34.561 99.0713 36.6633 100.247C38.0122 100.881 39.3611 101.596 40.7775 102.095C41.2496 102.284 41.7352 102.419 42.2208 102.581L43.4483 102.945L43.8665 103.053C44.1902 103.134 44.514 103.215 44.8512 103.269C45.0059 103.316 45.1637 103.352 45.3233 103.377C45.701 103.458 46.0922 103.525 46.4969 103.579C47.1309 103.701 47.8458 103.782 48.4258 103.849C49.397 103.93 50.3683 103.984 51.3665 103.984H51.7172C52.6884 103.984 53.6731 103.984 54.6308 103.849C55.3053 103.782 55.9258 103.701 56.5733 103.579Z" fill="#DFDFDF"/>
<path d="M56.5733 103.579L57.7603 103.377L58.2189 103.269C58.5697 103.269 58.8934 103.134 59.2171 103.053L59.5948 102.945L60.8628 102.581C61.3484 102.419 61.834 102.284 62.2927 102.095C63.2151 101.775 64.1162 101.397 64.9905 100.962C65.5003 100.756 65.996 100.517 66.4743 100.247C71.3705 97.5796 75.4577 93.6422 78.3062 88.8485C81.1546 84.0548 82.6591 78.5819 82.6612 73.0054V31.1787C82.6612 30.9223 82.6612 30.6525 82.6612 30.3961C82.787 28.7921 83.2858 27.2396 84.1181 25.8627C84.3886 25.3868 84.7001 24.9353 85.0488 24.5134V24.5134C85.2188 24.3026 85.4036 24.1042 85.6019 23.9197C86.5586 22.9208 87.7085 22.127 88.9816 21.5866C90.2547 21.0461 91.6244 20.7703 93.0074 20.776C93.3444 20.7563 93.6822 20.7563 94.0191 20.776C94.3833 20.776 94.761 20.8704 95.1117 20.9379C97.1054 21.3153 98.9336 22.3003 100.346 23.7578C101.289 24.7399 102.028 25.9004 102.517 27.1714C102.794 27.7792 102.998 28.4179 103.124 29.0739C103.264 29.776 103.336 30.4898 103.34 31.2057V73.0324C103.335 77.3997 104.258 81.7183 106.046 85.7026C107.834 89.6869 110.447 93.2461 113.713 96.145C115.537 97.7125 117.512 99.0954 119.608 100.274C120.957 100.908 122.306 101.623 123.736 102.122L124.073 102.244V30.5311C124.073 30.4231 124.073 30.3017 124.073 30.1937C123.917 22.2403 120.684 14.6571 115.054 9.03844C109.424 3.41974 101.836 0.203202 93.8842 0.0650473C93.7091 0.0512342 93.5332 0.0512342 93.3581 0.0650473H92.6027C92.4276 0.0516145 92.2518 0.0516145 92.0767 0.0650473C84.2004 0.192576 76.675 3.3461 71.0599 8.8722C65.4447 14.3983 62.1703 21.8734 61.915 29.7485V72.8435C61.915 73.1268 61.915 73.3832 61.915 73.68C61.9003 73.8704 61.8732 74.0597 61.834 74.2467C61.8176 74.4841 61.777 74.7192 61.7126 74.9483C61.6662 75.223 61.5985 75.4936 61.5103 75.7578C61.4984 75.8835 61.4665 76.0065 61.4159 76.1221C61.3079 76.392 61.227 76.6348 61.1056 76.9047C60.9855 77.2102 60.8459 77.5077 60.6875 77.7952C60.5326 78.0879 60.3614 78.3717 60.1749 78.6452C60.0999 78.734 60.0322 78.8288 59.9725 78.9286L59.7567 79.2119C59.5588 79.4825 59.3376 79.7354 59.0957 79.9675L59.0148 80.0484L58.8934 80.1699C58.8934 80.1699 58.8125 80.2508 58.7855 80.2913L58.6506 80.4127L58.5427 80.5207L58.4078 80.6421H58.3403L58.2055 80.7501C58.1293 80.8331 58.0615 80.9235 58.0031 81.0199V81.0199C57.4894 81.4368 56.9333 81.7986 56.344 82.0993L55.7504 82.3692L55.5751 82.4501L55.3053 82.5041L54.9815 82.6255L54.6173 82.7469L54.3476 82.8279C53.8201 82.9708 53.2839 83.0789 52.7423 83.1517H52.6075C52.518 83.165 52.4271 83.165 52.3377 83.1517H51.5283C51.2585 83.1517 51.0023 83.1517 50.7325 83.1517C50.6385 83.1645 50.5432 83.1645 50.4492 83.1517H50.3143C49.777 83.0803 49.2451 82.9721 48.7226 82.8279C48.6348 82.809 48.549 82.7819 48.4663 82.7469C48.333 82.7164 48.2022 82.6758 48.0751 82.6255C47.91 82.5662 47.7479 82.4987 47.5895 82.4231L47.3872 82.3692C47.1713 82.2882 46.9825 82.1803 46.7802 82.0993C46.2028 81.7855 45.6523 81.4245 45.1345 81.0199C45.0784 80.9584 45.015 80.904 44.9456 80.858L44.8242 80.7501L44.514 80.4262C44.4593 80.3926 44.4094 80.3518 44.3656 80.3048C44.3277 80.2698 44.2958 80.2287 44.2712 80.1834V80.1834L44.1902 80.1024C44.1902 80.1024 44.1902 80.0349 44.1093 80.0215C43.868 79.7926 43.651 79.5394 43.4618 79.2659C43.3929 79.1656 43.3162 79.0709 43.2325 78.9825C43.1729 78.8828 43.1052 78.788 43.0302 78.6992C42.8425 78.4314 42.68 78.1469 42.5446 77.8492C42.3774 77.5621 42.2288 77.2647 42.0994 76.9587C41.9915 76.6888 41.8971 76.4325 41.8162 76.1761C41.7352 75.9197 41.7352 75.9602 41.6948 75.8118C41.6065 75.5476 41.5389 75.2769 41.4924 75.0023C41.4924 74.7594 41.4115 74.5165 41.3845 74.3007C41.3453 74.1137 41.3183 73.9244 41.3036 73.734C41.3036 73.4371 41.3036 73.1808 41.3036 72.8974V31.2462C41.3036 31.489 41.3036 31.7319 41.3036 31.9613V30.8009C41.317 30.5987 41.317 30.3959 41.3036 30.1937V30.1937C41.1462 22.2035 37.8835 14.5888 32.2075 8.96425C26.5315 3.33972 18.8884 0.147694 10.8991 0.0650473C10.7285 0.0512657 10.5571 0.0512657 10.3865 0.0650473V20.8435H11.0205C11.3847 20.8435 11.7759 20.9379 12.1131 21.0054C14.1083 21.3785 15.9376 22.3641 17.3469 23.8253C18.2976 24.7683 19.0498 25.8923 19.5591 27.131C19.8624 27.7486 20.0889 28.4011 20.2335 29.0739C20.3839 29.7746 20.4607 30.489 20.4629 31.2057V73.0324C20.451 77.3892 21.3621 81.6991 23.1361 85.6782C24.9101 89.6573 27.5068 93.2153 30.7551 96.118C32.5817 97.6881 34.561 99.0713 36.6633 100.247C38.0122 100.881 39.3611 101.596 40.7775 102.095C41.2496 102.284 41.7352 102.419 42.2208 102.581L43.4483 102.945L43.8665 103.053C44.1902 103.134 44.514 103.215 44.8512 103.269C45.0059 103.316 45.1637 103.352 45.3233 103.377C45.701 103.458 46.0922 103.525 46.4969 103.579C47.1309 103.701 47.8458 103.782 48.4258 103.849C49.397 103.93 50.3683 103.984 51.3665 103.984H51.7172C52.6884 103.984 53.6731 103.984 54.6308 103.849C55.3053 103.782 55.9258 103.701 56.5733 103.579Z" fill="#DFDFDF"/>
<path d="M10.3866 20.8438C16.123 20.8438 20.7733 16.1924 20.7733 10.4546C20.7733 4.71684 16.123 0.0654297 10.3866 0.0654297C4.65025 0.0654297 0 4.71684 0 10.4546C0 16.1924 4.65025 20.8438 10.3866 20.8438Z" fill="#E53E51"/>
<path d="M373.163 102.207L374.269 102.598L375.51 102.963L375.915 103.071C376.239 103.152 376.563 103.233 376.9 103.287C377.055 103.333 377.212 103.369 377.372 103.395C377.763 103.475 378.141 103.529 378.545 103.597C379.179 103.718 379.894 103.799 380.474 103.867C381.446 103.948 382.417 104.002 383.415 104.002H383.766C384.737 104.002 385.735 104.002 386.679 103.867C387.354 103.867 388.028 103.718 388.635 103.597L389.809 103.395L390.268 103.287C390.618 103.287 390.942 103.152 391.266 103.071L391.657 102.963L392.911 102.598C393.397 102.437 393.883 102.302 394.355 102.113C395.273 101.781 396.173 101.403 397.053 100.979L398.509 100.264C403.406 97.5972 407.493 93.6598 410.341 88.8661C413.19 84.0724 414.694 78.5995 414.696 73.023V31.655V31.2233C414.68 29.3467 415.194 27.5037 416.18 25.9072C416.446 25.4283 416.758 24.9764 417.111 24.558C417.276 24.3472 417.456 24.1488 417.65 23.9643C418.609 22.9673 419.759 22.1747 421.032 21.6344C422.304 21.0941 423.673 20.8173 425.056 20.8206C425.393 20.8 425.731 20.8 426.068 20.8206C426.445 20.8206 426.823 20.915 427.174 20.9825C429.167 21.3599 430.996 22.3449 432.408 23.8024C433.354 24.746 434.102 25.8701 434.606 27.1081C434.893 27.7308 435.097 28.3886 435.213 29.0645C435.353 29.7667 435.425 30.4805 435.429 31.1963V73.023C435.421 77.3909 436.342 81.7106 438.13 85.6954C439.919 89.6802 442.534 93.2389 445.802 96.1356C447.623 97.7069 449.598 99.0901 451.697 100.264C453.046 100.898 454.395 101.614 455.811 102.113C456.283 102.302 456.769 102.437 457.255 102.598L458.496 102.963L458.9 103.071C459.224 103.152 459.548 103.233 459.898 103.287C460.049 103.333 460.202 103.37 460.357 103.395C460.748 103.475 461.126 103.529 461.531 103.597C462.165 103.718 462.88 103.799 463.46 103.867C464.431 103.948 465.402 104.002 466.4 104.002H466.751C467.722 104.002 468.72 104.002 469.665 103.867C470.339 103.867 471.013 103.718 471.621 103.597L472.794 103.395L473.266 103.287C473.603 103.287 473.927 103.152 474.251 103.071C474.384 103.045 474.515 103.009 474.642 102.963L475.897 102.598C476.382 102.437 476.868 102.302 477.34 102.113C478.262 101.791 479.163 101.412 480.038 100.979C480.548 100.774 481.043 100.535 481.522 100.264C486.358 97.6304 490.406 93.7565 493.251 89.0402C496.096 84.324 497.634 78.9354 497.708 73.4277V1.74222C496.64 2.10507 495.59 2.52392 494.566 2.99702C489.463 5.40582 485.125 9.17789 482.031 13.8969C478.936 18.6159 477.206 24.0983 477.03 29.7391V72.8341C477.03 73.1174 477.03 73.3738 477.03 73.6706C477.03 73.9674 477.03 74.0484 476.949 74.2373C476.868 74.4262 476.949 74.696 476.827 74.9389C476.781 75.2136 476.713 75.4842 476.625 75.7484C476.603 75.8736 476.567 75.9958 476.517 76.1127C476.423 76.3826 476.342 76.6255 476.22 76.8953C476.096 77.2011 475.951 77.4985 475.789 77.7858C475.634 78.0785 475.463 78.3623 475.276 78.6358C475.201 78.7246 475.133 78.8194 475.074 78.9192L474.858 79.2025C474.665 79.4729 474.448 79.7258 474.21 79.9581L474.008 80.1605C474.008 80.1605 473.927 80.2414 473.914 80.2819L473.765 80.4033C473.765 80.4033 473.765 80.4843 473.671 80.5113C473.576 80.5383 473.59 80.5922 473.522 80.6327L473.374 80.7407C473.323 80.7889 473.269 80.834 473.212 80.8756C473.212 80.8756 473.212 80.8756 473.212 80.8756C472.691 81.2894 472.131 81.6509 471.54 81.955L470.96 82.2248C470.894 82.246 470.831 82.2731 470.771 82.3058C470.708 82.3432 470.64 82.3705 470.568 82.3867L470.245 82.5082L469.88 82.6296L469.611 82.7106C469.087 82.8521 468.556 82.9603 468.019 83.0344H467.871C467.781 83.0477 467.69 83.0477 467.601 83.0344H466.791H466.009C465.915 83.0484 465.82 83.0484 465.726 83.0344H465.577C465.044 82.9629 464.517 82.8547 463.999 82.7106C463.907 82.6931 463.816 82.6659 463.729 82.6296C463.601 82.5973 463.475 82.5567 463.352 82.5082C463.186 82.4513 463.023 82.3837 462.866 82.3058C462.795 82.2895 462.727 82.2622 462.664 82.2248C462.434 82.1439 462.259 82.0359 462.043 81.955C461.468 81.6443 460.922 81.2831 460.411 80.8756C460.36 80.8145 460.301 80.7601 460.236 80.7137L460.114 80.6057L459.494 80.4168L459.359 80.2954C459.316 80.2613 459.28 80.2202 459.251 80.174V80.174L459.17 80.093C459.17 80.093 459.17 80.0256 459.089 80.0121C458.848 79.7832 458.631 79.53 458.442 79.2565C458.376 79.1537 458.299 79.0587 458.212 78.9732C458.157 78.8704 458.089 78.7751 458.01 78.6898C457.832 78.4158 457.67 78.132 457.524 77.8398C457.357 77.5527 457.209 77.2553 457.079 76.9493C456.985 76.6794 456.877 76.4231 456.796 76.1667C456.715 75.9104 456.715 75.9508 456.675 75.8024C456.586 75.5382 456.519 75.2675 456.472 74.9929C456.472 74.75 456.391 74.5071 456.364 74.2913C456.325 74.1043 456.298 73.915 456.283 73.7246C456.283 73.4277 456.283 73.1714 456.283 72.888V31.2368C456.283 31.4796 456.283 31.7225 456.283 31.9519V30.7915C456.297 30.5894 456.297 30.3865 456.283 30.1844C456.195 25.9275 455.219 21.7361 453.416 17.879C451.614 14.0219 449.025 10.5843 445.816 7.78685C443.637 5.86628 441.199 4.26285 438.572 3.02401C434.624 1.14255 430.319 0.130319 425.946 0.0556641L424.152 0.0556641C416.191 0.207847 408.598 3.43991 402.969 9.07304C397.34 14.7062 394.112 22.302 393.964 30.2653V72.8341C393.964 73.1174 393.964 73.3738 393.964 73.6706C393.956 73.8617 393.928 74.0516 393.883 74.2373C393.866 74.4747 393.826 74.7098 393.761 74.9389C393.715 75.2136 393.647 75.4842 393.559 75.7484C393.547 75.8741 393.515 75.9971 393.464 76.1127C393.357 76.3826 393.276 76.6255 393.154 76.8953C393.034 77.2008 392.894 77.4983 392.736 77.7858C392.581 78.0785 392.41 78.3623 392.223 78.6358C392.148 78.7246 392.081 78.8194 392.021 78.9192L391.805 79.2025C391.611 79.4763 391.39 79.7295 391.144 79.9581L390.942 80.1605C390.942 80.1605 390.861 80.2414 390.834 80.2819L390.699 80.4033L390.591 80.5113L390.456 80.6327L390.322 80.7407C390.265 80.7823 390.211 80.8273 390.16 80.8756V80.8756C389.646 81.2925 389.09 81.6543 388.5 81.955L387.907 82.2248L387.732 82.3058L387.529 82.3867L387.206 82.5082L386.841 82.6296L386.572 82.7106C386.044 82.8534 385.508 82.9616 384.966 83.0344H384.831C384.742 83.0477 384.651 83.0477 384.562 83.0344H383.752H382.956C382.862 83.0472 382.767 83.0472 382.673 83.0344H382.538C382.005 82.9643 381.478 82.856 380.96 82.7106C380.868 82.6931 380.777 82.6659 380.69 82.6296C380.557 82.5991 380.426 82.5585 380.299 82.5082C380.076 82.473 379.855 82.4235 379.638 82.3598H379.436C379.22 82.2788 379.031 82.1709 378.829 82.0899C378.261 81.7749 377.719 81.4139 377.21 81.0105V81.0105C377.154 80.949 377.091 80.8946 377.021 80.8486L376.9 80.7407L376.684 80.5113C376.629 80.4777 376.579 80.4368 376.536 80.3899C376.498 80.3548 376.466 80.3138 376.441 80.2684V80.2684L376.36 80.1875C376.36 80.1875 376.36 80.12 376.279 80.1065C376.038 79.8777 375.821 79.6245 375.632 79.3509C375.566 79.2482 375.489 79.1531 375.403 79.0676C375.343 78.9678 375.275 78.8731 375.2 78.7843C374.934 78.4788 374.703 78.1438 374.512 77.7858C374.334 77.5216 374.172 77.2468 374.027 76.9628C373.919 76.6929 373.824 76.4366 373.743 76.1802C373.662 75.9238 373.662 75.9643 373.622 75.8159C373.534 75.5517 373.466 75.281 373.42 75.0064C373.42 74.7635 373.339 74.5206 373.312 74.3047C373.272 74.1178 373.245 73.9285 373.231 73.7381C373.231 73.4412 373.231 73.1849 373.231 72.9015" fill="#DFDFDF"/>
<path d="M383.55 103.974C389.286 103.974 393.937 99.3223 393.937 93.5845C393.937 87.8467 389.286 83.1953 383.55 83.1953C377.814 83.1953 373.163 87.8467 373.163 93.5845C373.163 99.3223 377.814 103.974 383.55 103.974Z" fill="#FFE816"/>
<path d="M124.073 102.207L125.179 102.598L126.42 102.963L126.825 103.071C127.149 103.152 127.472 103.233 127.809 103.287C127.964 103.333 128.122 103.369 128.282 103.395C128.673 103.475 129.05 103.529 129.455 103.597C130.089 103.718 130.804 103.799 131.384 103.867C132.355 103.948 133.327 104.002 134.325 104.002H134.675C135.647 104.002 136.645 104.002 137.589 103.867C138.264 103.867 138.938 103.718 139.545 103.597L140.719 103.395L141.177 103.287C141.528 103.287 141.852 103.152 142.175 103.071L142.567 102.963L143.821 102.598C144.307 102.437 144.792 102.302 145.264 102.113C146.182 101.781 147.083 101.403 147.962 100.979L149.419 100.264C154.315 97.5972 158.403 93.6598 161.251 88.8661C164.099 84.0724 165.604 78.5995 165.606 73.023V31.655V31.2233C165.589 29.3467 166.104 27.5037 167.09 25.9072C167.355 25.4283 167.667 24.9764 168.021 24.558C168.186 24.3472 168.366 24.1488 168.56 23.9643C169.518 22.9673 170.669 22.1747 171.941 21.6344C173.214 21.0941 174.583 20.8173 175.966 20.8206C176.303 20.8 176.64 20.8 176.977 20.8206C177.355 20.8206 177.733 20.915 178.083 20.9825C180.077 21.3599 181.905 22.3449 183.317 23.8024C184.264 24.746 185.012 25.8701 185.516 27.1081C185.803 27.7308 186.007 28.3886 186.123 29.0645C186.262 29.7667 186.335 30.4805 186.339 31.1963V73.023C186.331 77.3909 187.251 81.7106 189.04 85.6954C190.828 89.6802 193.444 93.2389 196.712 96.1356C198.533 97.7069 200.508 99.0901 202.607 100.264C203.956 100.898 205.305 101.614 206.721 102.113C207.193 102.302 207.679 102.437 208.164 102.598L209.405 102.963L209.81 103.071C210.134 103.152 210.457 103.233 210.808 103.287C210.958 103.333 211.111 103.37 211.267 103.395C211.658 103.475 212.036 103.529 212.44 103.597C213.074 103.718 213.789 103.799 214.369 103.867C215.34 103.948 216.312 104.002 217.31 104.002H217.661C218.632 104.002 219.63 104.002 220.574 103.867C221.249 103.867 221.923 103.718 222.53 103.597L223.704 103.395L224.176 103.287C224.513 103.287 224.837 103.152 225.161 103.071C225.293 103.045 225.424 103.009 225.552 102.963L226.806 102.598C227.292 102.437 227.777 102.302 228.25 102.113C229.171 101.791 230.072 101.412 230.947 100.979C231.457 100.774 231.953 100.535 232.431 100.264C237.268 97.6304 241.316 93.7565 244.161 89.0402C247.005 84.324 248.544 78.9354 248.618 73.4277V1.74222C247.549 2.10507 246.5 2.52392 245.475 2.99702C240.373 5.40582 236.035 9.17789 232.941 13.8969C229.846 18.6159 228.115 24.0983 227.939 29.7391V72.8341C227.939 73.1174 227.939 73.3738 227.939 73.6706C227.939 73.9674 227.939 74.0484 227.858 74.2373C227.777 74.4262 227.858 74.696 227.737 74.9389C227.691 75.2136 227.623 75.4842 227.535 75.7484C227.513 75.8736 227.476 75.9958 227.427 76.1127C227.332 76.3826 227.251 76.6255 227.13 76.8953C227.005 77.2011 226.861 77.4985 226.698 77.7858C226.543 78.0785 226.372 78.3623 226.186 78.6358C226.111 78.7246 226.043 78.8194 225.983 78.9192L225.768 79.2025C225.574 79.4729 225.358 79.7258 225.12 79.9581L224.918 80.1605C224.918 80.1605 224.837 80.2414 224.823 80.2819L224.675 80.4033C224.675 80.4033 224.675 80.4843 224.581 80.5113C224.486 80.5383 224.5 80.5922 224.432 80.6327L224.284 80.7407C224.233 80.7889 224.179 80.834 224.122 80.8756C224.122 80.8756 224.122 80.8756 224.122 80.8756C223.601 81.2894 223.041 81.6509 222.449 81.955L221.869 82.2248C221.804 82.246 221.741 82.2731 221.68 82.3058C221.618 82.3432 221.549 82.3705 221.478 82.3867L221.154 82.5082L220.79 82.6296L220.52 82.7106C219.997 82.8521 219.465 82.9603 218.929 83.0344H218.78C218.691 83.0477 218.6 83.0477 218.51 83.0344H217.701H216.919C216.825 83.0484 216.729 83.0484 216.635 83.0344H216.487C215.954 82.9629 215.427 82.8547 214.909 82.7106C214.816 82.6931 214.726 82.6659 214.639 82.6296C214.511 82.5973 214.385 82.5567 214.261 82.5082C214.095 82.4513 213.933 82.3837 213.776 82.3058C213.704 82.2895 213.636 82.2622 213.573 82.2248C213.344 82.1439 213.169 82.0359 212.953 81.955C212.378 81.6443 211.832 81.2831 211.321 80.8756C211.269 80.8145 211.21 80.7601 211.145 80.7137L211.024 80.6057L210.403 80.4168L210.269 80.2954C210.226 80.2613 210.19 80.2202 210.161 80.174V80.174L210.08 80.093C210.08 80.093 210.08 80.0256 209.999 80.0121C209.757 79.7832 209.54 79.53 209.351 79.2565C209.286 79.1537 209.209 79.0587 209.122 78.9732C209.067 78.8704 208.999 78.7751 208.92 78.6898C208.742 78.4158 208.58 78.132 208.434 77.8398C208.267 77.5527 208.118 77.2553 207.989 76.9493C207.894 76.6794 207.787 76.4231 207.706 76.1667C207.625 75.9104 207.625 75.9508 207.584 75.8024C207.496 75.5382 207.428 75.2675 207.382 74.9929C207.382 74.75 207.301 74.5071 207.274 74.2913C207.235 74.1043 207.208 73.915 207.193 73.7246C207.193 73.4277 207.193 73.1714 207.193 72.888V31.2368C207.193 31.4796 207.193 31.7225 207.193 31.9519V30.7915C207.206 30.5894 207.206 30.3865 207.193 30.1844C207.105 25.9275 206.129 21.7361 204.326 17.879C202.523 14.0219 199.934 10.5843 196.725 7.78685C194.547 5.86628 192.108 4.26285 189.482 3.02401C185.534 1.14255 181.228 0.130319 176.856 0.0556641L175.062 0.0556641C167.101 0.207847 159.508 3.43991 153.879 9.07304C148.25 14.7062 145.022 22.302 144.873 30.2653V72.8341C144.873 73.1174 144.873 73.3738 144.873 73.6706C144.865 73.8617 144.838 74.0516 144.792 74.2373C144.776 74.4747 144.735 74.7098 144.671 74.9389C144.624 75.2136 144.557 75.4842 144.469 75.7484C144.457 75.8741 144.425 75.9971 144.374 76.1127C144.266 76.3826 144.185 76.6255 144.064 76.8953C143.944 77.2008 143.804 77.4983 143.646 77.7858C143.491 78.0785 143.32 78.3623 143.133 78.6358C143.058 78.7246 142.99 78.8194 142.931 78.9192L142.715 79.2025C142.521 79.4763 142.3 79.7295 142.054 79.9581L141.852 80.1605C141.852 80.1605 141.771 80.2414 141.744 80.2819L141.609 80.4033L141.501 80.5113L141.366 80.6327L141.231 80.7407C141.175 80.7823 141.12 80.8273 141.069 80.8756V80.8756C140.556 81.2925 139.999 81.6543 139.41 81.955L138.817 82.2248L138.641 82.3058L138.439 82.3867L138.115 82.5082L137.751 82.6296L137.481 82.7106C136.954 82.8534 136.418 82.9616 135.876 83.0344H135.741C135.652 83.0477 135.561 83.0477 135.471 83.0344H134.662H133.866C133.772 83.0472 133.677 83.0472 133.583 83.0344H133.448C132.915 82.9643 132.387 82.856 131.87 82.7106C131.777 82.6931 131.687 82.6659 131.6 82.6296C131.467 82.5991 131.336 82.5585 131.209 82.5082C130.985 82.473 130.765 82.4235 130.548 82.3598H130.345C130.13 82.2788 129.941 82.1709 129.738 82.0899C129.17 81.7749 128.629 81.4139 128.12 81.0105V81.0105C128.064 80.949 128 80.8946 127.931 80.8486L127.809 80.7407L127.594 80.5113C127.539 80.4777 127.489 80.4368 127.445 80.3899C127.407 80.3548 127.375 80.3138 127.351 80.2684V80.2684L127.27 80.1875C127.27 80.1875 127.27 80.12 127.189 80.1065C126.948 79.8777 126.731 79.6245 126.542 79.3509C126.476 79.2482 126.399 79.1531 126.312 79.0676C126.253 78.9678 126.185 78.8731 126.11 78.7843C125.843 78.4788 125.612 78.1438 125.422 77.7858C125.243 77.5216 125.081 77.2468 124.936 76.9628C124.828 76.6929 124.734 76.4366 124.653 76.1802C124.572 75.9238 124.572 75.9643 124.532 75.8159C124.443 75.5517 124.376 75.281 124.329 75.0064C124.329 74.7635 124.248 74.5206 124.221 74.3047C124.182 74.1178 124.155 73.9285 124.14 73.7381C124.14 73.4412 124.14 73.1849 124.14 72.9015" fill="#DFDFDF"/>
<path d="M134.46 103.974C140.196 103.974 144.846 99.3223 144.846 93.5845C144.846 87.8467 140.196 83.1953 134.46 83.1953C128.723 83.1953 124.073 87.8467 124.073 93.5845C124.073 99.3223 128.723 103.974 134.46 103.974Z" fill="#FFE816"/>
<path d="M248.618 1.79477L249.725 1.40348L250.966 1.03919L251.37 0.931248C251.694 0.850293 252.018 0.769333 252.355 0.715363C252.51 0.668587 252.667 0.632529 252.827 0.607431C253.218 0.526477 253.596 0.472505 254.001 0.405042C254.635 0.28361 255.349 0.202649 255.93 0.135187C256.901 0.0542317 257.872 0.000263848 258.87 0.000263848H259.221C260.192 0.000263848 261.19 0.000261787 262.135 0.135187C262.809 0.135187 263.483 0.28361 264.09 0.405042L265.264 0.607431L265.723 0.715363C266.073 0.715363 266.397 0.850293 266.721 0.931248L267.112 1.03919L268.366 1.40348C268.852 1.56539 269.338 1.70032 269.81 1.88921C270.728 2.22066 271.628 2.59894 272.508 3.02258L273.964 3.73769C278.861 6.40472 282.948 10.3421 285.796 15.1358C288.645 19.9296 290.149 25.4025 290.151 30.979V72.3469V72.7787C290.135 74.6552 290.649 76.4982 291.635 78.0947C291.901 78.5737 292.213 79.0256 292.566 79.444C292.731 79.6547 292.912 79.8531 293.106 80.0376C294.064 81.0347 295.214 81.8272 296.487 82.3675C297.759 82.9078 299.128 83.1847 300.511 83.1814C300.848 83.2019 301.186 83.2019 301.523 83.1814C301.9 83.1814 302.278 83.0869 302.629 83.0195C304.623 82.6421 306.451 81.6571 307.863 80.1995C308.809 79.256 309.557 78.1319 310.061 76.8939C310.348 76.2711 310.553 75.6134 310.668 74.9375C310.808 74.2353 310.88 73.5215 310.884 72.8057V30.979C310.876 26.6111 311.797 22.2914 313.585 18.3066C315.374 14.3218 317.989 10.763 321.257 7.86638C323.078 6.2951 325.053 4.91184 327.152 3.73769C328.501 3.10354 329.85 2.38843 331.266 1.88921C331.738 1.70032 332.224 1.56539 332.71 1.40348L333.951 1.03919L334.355 0.931248C334.679 0.850293 335.003 0.769333 335.354 0.715363C335.504 0.668471 335.657 0.632406 335.812 0.607431C336.203 0.526477 336.581 0.472505 336.986 0.405042C337.62 0.28361 338.335 0.202649 338.915 0.135187C339.886 0.0542317 340.857 0.000263848 341.855 0.000263848H342.206C343.177 0.000263848 344.175 0.000261787 345.12 0.135187C345.794 0.135187 346.469 0.28361 347.076 0.405042L348.249 0.607431L348.721 0.715363C349.058 0.715363 349.382 0.850293 349.706 0.931248C349.839 0.957354 349.97 0.993438 350.097 1.03919L351.352 1.40348C351.837 1.56539 352.323 1.70032 352.795 1.88921C353.717 2.21122 354.618 2.58972 355.493 3.02258C356.003 3.22803 356.498 3.46692 356.977 3.73769C361.813 6.37151 365.861 10.2454 368.706 14.9617C371.551 19.678 373.089 25.0666 373.164 30.5742V102.26C372.095 101.897 371.046 101.478 370.021 101.005C364.918 98.5961 360.58 94.8241 357.486 90.1051C354.392 85.3861 352.661 79.9036 352.485 74.2628V31.1679C352.485 30.8845 352.485 30.6282 352.485 30.3313C352.485 30.0345 352.485 29.9536 352.404 29.7647C352.323 29.5758 352.404 29.3059 352.282 29.0631C352.236 28.7884 352.168 28.5177 352.08 28.2535C352.058 28.1284 352.022 28.0062 351.972 27.8892C351.878 27.6194 351.797 27.3765 351.675 27.1066C351.551 26.8009 351.407 26.5034 351.244 26.2161C351.089 25.9235 350.918 25.6397 350.731 25.3661C350.656 25.2773 350.588 25.1825 350.529 25.0828L350.313 24.7994C350.12 24.529 349.903 24.2762 349.666 24.0439L349.463 23.8415C349.463 23.8415 349.382 23.7605 349.369 23.72L349.22 23.5986C349.22 23.5986 349.22 23.5176 349.126 23.4907C349.032 23.4637 349.045 23.4097 348.978 23.3692L348.829 23.2613C348.778 23.213 348.724 23.168 348.667 23.1264C348.667 23.1264 348.667 23.1264 348.667 23.1264C348.146 22.7126 347.586 22.351 346.995 22.047L346.415 21.7771C346.349 21.7559 346.286 21.7288 346.226 21.6962C346.163 21.6588 346.095 21.6315 346.023 21.6152L345.7 21.4938L345.335 21.3723L345.066 21.2914C344.543 21.1499 344.011 21.0417 343.474 20.9676H343.326C343.236 20.9543 343.145 20.9543 343.056 20.9676H342.246H341.464C341.37 20.9535 341.275 20.9535 341.181 20.9676H341.032C340.5 21.039 339.972 21.1472 339.454 21.2914C339.362 21.3089 339.271 21.336 339.184 21.3723C339.056 21.4047 338.93 21.4452 338.807 21.4938C338.641 21.5506 338.478 21.6182 338.321 21.6962C338.25 21.7124 338.182 21.7398 338.119 21.7771C337.889 21.8581 337.714 21.966 337.498 22.047C336.923 22.3576 336.377 22.7189 335.866 23.1264C335.815 23.1874 335.756 23.2418 335.691 23.2883L335.569 23.3962L334.949 23.5851L334.814 23.7065C334.771 23.7407 334.735 23.7817 334.706 23.828V23.828L334.625 23.9089C334.625 23.9089 334.625 23.9764 334.544 23.9899C334.303 24.2187 334.086 24.4719 333.897 24.7455C333.831 24.8482 333.754 24.9433 333.667 25.0288C333.612 25.1316 333.544 25.2268 333.465 25.3121C333.287 25.5861 333.125 25.8699 332.979 26.1622C332.812 26.4493 332.664 26.7467 332.534 27.0527C332.44 27.3225 332.332 27.5789 332.251 27.8352C332.17 28.0916 332.17 28.0511 332.13 28.1995C332.041 28.4638 331.974 28.7344 331.927 29.0091C331.927 29.2519 331.846 29.4948 331.819 29.7107C331.78 29.8976 331.753 30.0869 331.738 30.2774C331.738 30.5742 331.738 30.8306 331.738 31.1139V72.7652C331.738 72.5223 331.738 72.2795 331.738 72.0501V73.2104C331.752 73.4126 331.752 73.6154 331.738 73.8176C331.651 78.0744 330.674 82.2659 328.871 86.123C327.069 89.9801 324.48 93.4176 321.271 96.2151C319.092 98.1357 316.654 99.7391 314.027 100.978C310.079 102.859 305.774 103.872 301.401 103.946H299.607C291.646 103.794 284.054 100.562 278.424 94.9289C272.795 89.2958 269.567 81.6999 269.419 73.7366V31.1679C269.419 30.8845 269.419 30.6282 269.419 30.3313C269.411 30.1402 269.383 29.9504 269.338 29.7647C269.321 29.5273 269.281 29.2922 269.216 29.0631C269.17 28.7884 269.102 28.5177 269.014 28.2535C269.002 28.1278 268.97 28.0049 268.92 27.8892C268.812 27.6194 268.731 27.3765 268.609 27.1066C268.489 26.8011 268.35 26.5037 268.191 26.2161C268.036 25.9235 267.865 25.6397 267.679 25.3661C267.604 25.2773 267.536 25.1825 267.476 25.0828L267.26 24.7994C267.066 24.5257 266.845 24.2725 266.599 24.0439L266.397 23.8415C266.397 23.8415 266.316 23.7605 266.289 23.72L266.154 23.5986L266.046 23.4907L265.911 23.3692L265.777 23.2613C265.72 23.2197 265.666 23.1746 265.615 23.1264V23.1264C265.101 22.7094 264.545 22.3476 263.956 22.047L263.362 21.7771L263.187 21.6962L262.984 21.6152L262.661 21.4938L262.296 21.3723L262.027 21.2914C261.499 21.1485 260.963 21.0404 260.421 20.9676H260.287C260.197 20.9543 260.106 20.9543 260.017 20.9676H259.207H258.412C258.318 20.9548 258.222 20.9548 258.128 20.9676H257.993C257.46 21.0377 256.933 21.1459 256.415 21.2914C256.323 21.3089 256.232 21.336 256.145 21.3723C256.012 21.4028 255.881 21.4434 255.754 21.4938C255.531 21.5289 255.31 21.5785 255.093 21.6422H254.891C254.675 21.7231 254.486 21.8311 254.284 21.912C253.716 22.2271 253.174 22.5881 252.665 22.9914V22.9914C252.609 23.053 252.546 23.1074 252.476 23.1533L252.355 23.2613L252.139 23.4907C252.084 23.5243 252.034 23.5651 251.991 23.6121C251.953 23.6471 251.921 23.6882 251.896 23.7335V23.7335L251.815 23.8145C251.815 23.8145 251.815 23.8819 251.734 23.8954C251.493 24.1243 251.276 24.3775 251.087 24.651C251.021 24.7538 250.944 24.8488 250.858 24.9344C250.798 25.0341 250.73 25.1289 250.655 25.2177C250.389 25.5232 250.158 25.8582 249.967 26.2161C249.789 26.4803 249.627 26.7552 249.482 27.0392C249.374 27.309 249.279 27.5654 249.198 27.8218C249.118 28.0781 249.118 28.0376 249.077 28.186C248.989 28.4503 248.921 28.7209 248.875 28.9956C248.875 29.2385 248.794 29.4813 248.767 29.6972C248.728 29.8841 248.701 30.0734 248.686 30.2639C248.686 30.5607 248.686 30.8171 248.686 31.1004" fill="#DFDFDF"/>
<path d="M259.005 0.0282326C264.741 0.0282326 269.392 4.67963 269.392 10.4174C269.392 16.1552 264.741 20.8066 259.005 20.8066C253.269 20.8066 248.618 16.1552 248.618 10.4174C248.618 4.67963 253.269 0.0282326 259.005 0.0282326Z" fill="#FFE816"/>
<path d="M497.708 31.2074C497.708 30.9511 497.708 30.6812 497.708 30.4249C497.834 28.8208 498.333 27.2683 499.165 25.8914C499.431 25.4124 499.743 24.9605 500.096 24.5421V24.5421C500.266 24.3313 500.451 24.1329 500.649 23.9485C501.604 22.9506 502.751 22.1573 504.022 21.6169C505.293 21.0764 506.66 20.8001 508.041 20.8047C508.383 20.7846 508.725 20.7846 509.066 20.8047C509.431 20.8047 509.808 20.8992 510.159 20.9666C512.153 21.344 513.981 22.329 515.393 23.7866C516.339 24.7332 517.091 25.8563 517.605 27.0922C517.882 27.7 518.086 28.3387 518.212 28.9947C518.351 29.6968 518.423 30.4106 518.428 31.1265V72.9532C518.423 77.3205 519.345 81.6391 521.134 85.6234C522.922 89.6077 525.535 93.1669 528.801 96.0658C530.622 97.637 532.597 99.0203 534.696 100.194C536.045 100.829 537.394 101.544 538.823 102.043C539.282 102.232 539.768 102.367 540.253 102.529L541.494 102.893L541.899 103.001C542.223 103.082 542.546 103.163 542.897 103.217C543.047 103.264 543.2 103.3 543.356 103.325C543.747 103.406 544.138 103.473 544.543 103.527C545.163 103.649 545.811 103.729 546.472 103.797C547.443 103.878 548.414 103.932 549.399 103.932H549.75C550.721 103.932 551.719 103.932 552.677 103.797C553.338 103.797 554.026 103.649 554.619 103.527C555.01 103.527 555.388 103.406 555.793 103.325L556.265 103.217C556.602 103.217 556.926 103.082 557.263 103.001L557.641 102.893L558.895 102.529C559.381 102.367 559.866 102.232 560.339 102.043C561.258 101.714 562.158 101.336 563.036 100.91L564.493 100.194C569.389 97.5274 573.477 93.59 576.325 88.7963C579.174 84.0026 580.678 78.5297 580.68 72.9532V31.1265C580.678 30.0828 580.837 29.0451 581.152 28.0502C581.395 27.2644 581.735 26.512 582.164 25.8104C582.435 25.3346 582.746 24.8831 583.095 24.4612V24.4612C583.265 24.2503 583.449 24.0519 583.648 23.8675C584.605 22.8686 585.754 22.0748 587.028 21.5343C588.301 20.9939 589.67 20.7181 591.053 20.7238C591.39 20.7041 591.728 20.7041 592.065 20.7238C592.429 20.7238 592.82 20.8182 593.158 20.8857C595.151 21.2631 596.979 22.248 598.391 23.7056C599.338 24.6523 600.089 25.7753 600.604 27.0113C600.881 27.6191 601.084 28.2577 601.211 28.9137C601.361 29.6144 601.438 30.3289 601.44 31.0455V72.8722C601.433 77.2387 602.353 81.5569 604.138 85.5413C605.924 89.5256 608.536 93.0853 611.8 95.9848C613.637 97.6049 615.635 99.0335 617.762 100.248C619.111 100.883 620.46 101.598 621.876 102.097C622.335 102.286 622.834 102.421 623.319 102.583L624.547 102.947L624.951 103.055C625.289 103.136 625.612 103.217 625.95 103.271C626.104 103.318 626.262 103.354 626.422 103.379C626.799 103.46 627.191 103.527 627.595 103.581C628.229 103.703 628.944 103.783 629.524 103.851C630.496 103.932 631.467 103.986 632.465 103.986H632.6V83.2344C632.33 83.2344 632.074 83.2344 631.804 83.2344C631.71 83.2472 631.615 83.2472 631.521 83.2344H631.386C630.848 83.163 630.317 83.0548 629.794 82.9106C629.706 82.8917 629.62 82.8646 629.538 82.8296C629.405 82.7991 629.274 82.7585 629.147 82.7082C628.981 82.6489 628.819 82.5814 628.661 82.5058C628.591 82.4871 628.523 82.4599 628.459 82.4249C628.243 82.3439 628.054 82.236 627.852 82.155C627.274 81.8412 626.724 81.4802 626.206 81.0756V81.0756C626.15 81.0141 626.087 80.9597 626.017 80.9137L625.855 80.7113L625.639 80.4819C625.585 80.4483 625.535 80.4075 625.491 80.3605C625.449 80.3264 625.412 80.2853 625.383 80.2391V80.2391L625.302 80.1581C625.302 80.1581 625.302 80.0907 625.221 80.0772C624.984 79.8448 624.767 79.592 624.574 79.3216C624.514 79.2185 624.441 79.1233 624.358 79.0383C624.298 78.9385 624.231 78.8437 624.156 78.7549C623.968 78.4871 623.805 78.2026 623.67 77.9049C623.503 77.6178 623.354 77.3204 623.225 77.0144C623.117 76.7445 623.023 76.4882 622.942 76.2318C622.891 76.114 622.85 75.9921 622.82 75.8675C622.734 75.6017 622.662 75.3314 622.604 75.058C622.604 74.8151 622.523 74.5722 622.51 74.3564C622.458 74.172 622.43 73.9814 622.429 73.7897C622.429 73.4928 622.429 73.2365 622.429 72.9532V31.2479C622.443 31.4861 622.443 31.7248 622.429 31.963V30.8027C622.429 30.6003 622.429 30.3979 622.429 30.1955C622.271 22.1983 619.003 14.5777 613.318 8.95201C607.634 3.32638 599.98 0.138983 591.984 0.0668001C591.809 0.0529871 591.633 0.0529871 591.458 0.0668001H590.703C590.527 0.0533674 590.352 0.0533674 590.177 0.0668001C585.82 0.134385 581.531 1.14716 577.605 3.03514C572.426 5.47923 568.037 9.32812 564.937 14.144C561.837 18.9598 560.15 24.5492 560.069 30.2764V72.8452C560.069 73.1285 560.069 73.3849 560.069 73.6817C560.054 73.8722 560.027 74.0615 559.988 74.2484C559.988 74.4643 559.92 74.7072 559.866 74.95C559.82 75.2247 559.752 75.4954 559.664 75.7596C559.642 75.8847 559.606 76.0069 559.556 76.1239C559.462 76.3937 559.381 76.6366 559.259 76.9064C559.135 77.2122 558.991 77.5097 558.828 77.7969C558.666 78.0938 558.504 78.3771 558.329 78.647C558.249 78.7323 558.181 78.8275 558.126 78.9303L557.897 79.2137C557.708 79.4872 557.491 79.7404 557.25 79.9692L557.047 80.1716C557.047 80.1716 556.966 80.2526 556.953 80.2931L556.804 80.4145C556.804 80.4145 556.804 80.4954 556.71 80.5224C556.616 80.5494 556.629 80.6034 556.562 80.6439L556.413 80.7518C556.362 80.8001 556.308 80.8451 556.251 80.8867C556.251 80.8867 556.251 80.8867 556.251 80.8867C555.733 81.3035 555.172 81.6652 554.579 81.9661L553.999 82.236C553.933 82.2572 553.87 82.2843 553.81 82.3169C553.747 82.3543 553.679 82.3816 553.607 82.3979L553.284 82.5193L552.92 82.6407L552.663 82.7217C552.135 82.8621 551.599 82.9702 551.058 83.0455H550.91C550.825 83.0587 550.738 83.0587 550.653 83.0455H549.844C549.574 83.0455 549.304 83.0455 549.048 83.0455C548.954 83.0596 548.859 83.0596 548.765 83.0455H548.616C548.084 82.9727 547.557 82.8645 547.038 82.7217L546.768 82.6407C546.64 82.6084 546.514 82.5678 546.391 82.5193C546.225 82.4625 546.062 82.3949 545.905 82.3169C545.834 82.3006 545.766 82.2733 545.703 82.236C545.474 82.155 545.298 82.0471 545.096 81.9661C544.518 81.6523 543.968 81.2913 543.45 80.8867H543.383C543.331 80.8257 543.272 80.7713 543.207 80.7248L543.086 80.6169L542.857 80.3875L542.722 80.2661C542.679 80.2319 542.643 80.1909 542.614 80.1446L542.533 80.0637C542.533 80.0637 542.533 79.9962 542.452 79.9827C542.214 79.7504 541.998 79.4976 541.804 79.2271C541.745 79.1241 541.672 79.0289 541.589 78.9438C541.529 78.844 541.461 78.7493 541.386 78.6605C541.199 78.3897 541.033 78.1056 540.887 77.8104C540.72 77.5234 540.571 77.2259 540.442 76.9199C540.348 76.6501 540.24 76.3937 540.159 76.1374C540.078 75.881 540.078 75.9215 540.037 75.7731C539.949 75.5089 539.882 75.2382 539.835 74.9635C539.835 74.7207 539.754 74.4778 539.741 74.2619C539.688 74.0775 539.661 73.8869 539.66 73.6952C539.66 73.3984 539.66 73.142 539.66 72.8587V31.2479C539.673 31.4861 539.673 31.7248 539.66 31.963V30.8027C539.66 30.6003 539.66 30.3979 539.66 30.1955C539.527 25.9122 538.496 21.7046 536.632 17.846C534.768 13.9873 532.114 10.5639 528.841 7.79799C526.663 5.87742 524.224 4.27399 521.598 3.03514C517.656 1.14877 513.354 0.136228 508.985 0.0668001C508.824 0.0550331 508.661 0.0550331 508.5 0.0668001H507.704C507.52 0.051952 507.335 0.051952 507.151 0.0668001C503.934 0.129119 500.748 0.698293 497.708 1.75336" fill="#DFDFDF"/>
<path d="M632.613 103.986C638.35 103.986 643 99.335 643 93.5972C643 87.8594 638.35 83.208 632.613 83.208C626.877 83.208 622.227 87.8594 622.227 93.5972C622.227 99.335 626.877 103.986 632.613 103.986Z" fill="#E53E51"/>
<path d="M508.095 20.8448C513.832 20.8448 518.482 16.1934 518.482 10.4556C518.482 4.71781 513.832 0.0664062 508.095 0.0664062C502.359 0.0664062 497.708 4.71781 497.708 10.4556C497.708 16.1934 502.359 20.8448 508.095 20.8448Z" fill="#FFE816"/>
</g>
<defs>
<clipPath id="clip0_4199_208438">
<rect width="643" height="104.001" fill="white"/>
</clipPath>
</defs>
</svg>
