<svg width="96" height="96" viewBox="0 0 96 96" fill="none" xmlns="http://www.w3.org/2000/svg">
<circle cx="48" cy="48" r="48" fill="white"/>
<g clip-path="url(#clip0_4568_133804)">
<path d="M6.91309 30.7585C6.91309 30.7585 27.4834 30.2812 39.2301 41.2935C39.2301 41.2935 52.1114 51.982 48.8 72.9844L23.101 59.5103L6.91309 30.7585Z" fill="url(#paint0_linear_4568_133804)"/>
<path d="M69.2007 45.9645C70.5342 45.9724 70.7777 46.3726 70.7777 46.6869C70.7777 47.3536 70.0616 47.7141 69.7107 47.8947C69.9224 48.1771 71.5407 50.1543 71.6202 50.2482L72.1613 49.7708C71.9576 49.5743 70.6941 48.1938 70.5143 47.9504C71.1023 47.6051 71.5263 47.1348 71.5263 46.5851C71.5263 46.005 70.9766 45.62 70.0353 45.5102C69.5192 45.461 69.0006 45.4427 68.4823 45.4553C68.5053 45.581 68.5212 46.9622 68.5212 47.1659V47.7053C68.5212 47.8469 68.5292 49.9649 68.5053 50.1217H69.2429C69.227 50.0198 69.2039 48.3331 69.2039 48.0824L69.2007 45.9645ZM66.8544 49.5973C66.1876 49.6363 65.2305 49.6204 65.0578 49.6204V48.0355C65.1374 48.0355 65.4501 48.0435 65.7739 48.0435C66.0977 48.0435 66.4415 48.0594 66.5584 48.0594L66.5353 47.4865C66.1041 47.5263 65.1939 47.5573 65.0602 47.5573V45.9255C65.178 45.9255 66.4645 45.8945 66.7708 45.8945L66.739 45.3296C66.3866 45.3526 64.5272 45.4545 64.3521 45.4545C64.3601 45.5802 64.3752 47.189 64.3752 47.2987V48.1827C64.3752 48.3418 64.3752 49.7676 64.3521 50.1201C64.4929 50.1201 66.6427 50.1909 66.8783 50.1909L66.8544 49.5973ZM62.7123 49.5973C62.0448 49.6363 61.0876 49.6204 60.9158 49.6204V48.0355C60.9953 48.0355 61.308 48.0435 61.6319 48.0435C61.9557 48.0435 62.2986 48.0594 62.4163 48.0594L62.3925 47.4865C61.9612 47.5263 61.051 47.5573 60.9182 47.5573V45.9255C61.0351 45.9255 62.3217 45.8945 62.628 45.8945L62.597 45.3296C62.2437 45.3526 60.3843 45.4545 60.2101 45.4545C60.218 45.5802 60.2339 47.189 60.2339 47.2987V48.1827C60.2339 48.3418 60.2339 49.7676 60.2101 50.1201C60.3517 50.1201 62.5007 50.1909 62.7362 50.1909L62.7123 49.5973ZM57.4166 50.1225C57.4007 49.9896 57.3299 48.4047 57.3299 47.0473V46.013C57.9027 46.013 59.2203 46.044 59.2394 46.0751V45.4386C59.0118 45.4935 57.4588 45.5181 57.3251 45.5181H56.6981C56.6186 45.5181 54.9326 45.495 54.7289 45.4386V46.0751C54.8308 46.044 55.8428 46.013 56.6504 46.013V46.9463C56.6504 48.0053 56.6424 49.9506 56.6035 50.1232L57.4166 50.1225ZM51.3594 48.1692C51.4223 48.0594 52.1988 46.4824 52.3007 46.3257C52.3715 46.4355 53.195 47.9416 53.2737 48.0904L51.3594 48.1692ZM50.3394 50.2641C50.4492 50.0365 50.9982 48.8749 51.0929 48.6633L53.5172 48.5694C53.5872 48.6871 54.3248 50.0015 54.4505 50.2561L55.087 49.8718C54.6239 49.1733 52.9292 46.1689 52.3253 45.2198H52.3094C52.1503 45.4783 50.1127 49.252 49.7363 49.9188L50.3394 50.2641ZM49.3345 45.4234C49.2168 45.7998 48.1109 48.5924 47.9931 48.9242C47.6247 48.2877 46.8084 47.0099 46.3692 46.2565H46.3533C45.8513 47.1508 44.949 48.7046 44.7533 49.0651C44.6355 48.7118 43.7412 46.1387 43.5137 45.3701L42.839 45.6367C43.1135 46.3981 44.369 49.8265 44.5894 50.3595H44.6204C44.9188 49.8655 46.0486 47.9273 46.331 47.4253C46.5188 47.7546 47.7353 49.661 48.0019 50.1304H48.0329C48.2294 49.7461 49.9321 45.8626 49.9941 45.69L49.3345 45.4234ZM39.23 48.1692C39.2929 48.0594 40.0694 46.4824 40.1712 46.3257C40.2421 46.4355 41.0655 47.9416 41.1443 48.0904L39.23 48.1692ZM38.21 50.2641C38.3198 50.0365 38.8688 48.8749 38.9635 48.6633L41.387 48.5694C41.4578 48.6871 42.1953 50.0015 42.321 50.2561L42.9576 49.8718C42.4953 49.1733 40.8006 46.1689 40.1967 45.2198H40.1808C40.0217 45.4783 37.984 49.252 37.6077 49.9188L38.21 50.2641ZM35.3696 50.1225C35.3386 50.0127 35.3457 48.5312 35.3457 48.4047V47.6592L36.9935 47.691L36.9704 47.0863C36.6012 47.1102 35.4874 47.1571 35.3457 47.1571V45.1593L37.1192 45.1195L37.0874 44.5156C36.7739 44.5475 34.8047 44.6334 34.609 44.6334C34.6241 44.7822 34.64 46.6734 34.64 46.7991V47.8422C34.64 48.0307 34.64 49.7095 34.5771 50.1248L35.3696 50.1225Z" fill="black"/>
<path d="M45.8781 50.148C45.8781 50.148 41.6708 60.3774 30.7221 55.1159C29.0746 54.3354 27.7027 53.0733 26.7877 51.4965C25.1591 48.6506 24.618 45.1474 24.653 43.8465H46.891C46.891 43.8465 47.5617 32.2963 33.5665 32.5883C29.0139 32.5828 18.5179 35.9905 19.6207 49.4096C20.7234 62.8287 35.4848 61.2916 35.4848 61.2916C35.4848 61.2916 44.3163 60.6686 46.8958 50.7479L45.8781 50.148ZM24.5552 42.0253C24.5989 41.17 25.1288 35.9634 31.5568 34.8201C32.0146 34.7393 32.4817 34.7251 32.9435 34.7779C40.2689 35.6197 39.4566 42.0253 39.4566 42.0253H24.5615C24.5615 42.1049 24.5615 42.1455 24.5615 42.1455L24.5552 42.0253Z" fill="black"/>
<path d="M6.91309 30.7583C6.91309 30.7583 13.119 43.1025 48.8 72.9841C48.8 72.9841 7.70395 75.1164 6.91309 30.7583Z" fill="url(#paint1_linear_4568_133804)"/>
<path d="M82.7973 49.5122C82.7973 49.622 82.7464 49.6562 82.6111 49.6562H82.3661C82.2865 49.6562 82.2817 49.673 82.2817 49.7406V49.8758C82.2817 49.9347 82.2985 49.9602 82.3406 49.9602C82.3828 49.9602 82.6788 49.9347 83.1363 49.9347C83.6136 49.9347 83.8292 49.9602 83.8881 49.9602C83.9303 49.9602 83.947 49.9347 83.947 49.8671V49.7326C83.947 49.673 83.9303 49.6531 83.8547 49.6531H83.5675C83.4402 49.6531 83.398 49.5687 83.398 49.4589V48.0005C83.398 47.6202 83.3901 47.3927 83.5166 47.1476C83.5964 47.0222 83.7045 46.9172 83.8321 46.841C83.9598 46.7647 84.1035 46.7193 84.2517 46.7084C84.4737 46.6975 84.6932 46.7598 84.8763 46.8858C85.0704 47.0378 85.1214 47.2837 85.1214 47.5613V48.8113C85.1214 48.9975 85.1214 49.3014 85.1047 49.4955C85.1057 49.5176 85.102 49.5396 85.0937 49.5601C85.0854 49.5806 85.0727 49.5991 85.0566 49.6142C85.0405 49.6293 85.0213 49.6408 85.0003 49.6478C84.9794 49.6547 84.9571 49.6571 84.9352 49.6547H84.7259C84.6328 49.6547 84.6161 49.6714 84.6161 49.7342V49.8774C84.6161 49.9363 84.6328 49.9618 84.6838 49.9618C84.7347 49.9618 85.0442 49.9331 85.4659 49.9331C85.8716 49.9331 86.1079 49.9586 86.1668 49.9586C86.2098 49.9586 86.2265 49.9331 86.2265 49.8742V49.731C86.2265 49.6714 86.2098 49.6515 86.1334 49.6515H85.9051C85.804 49.6515 85.7276 49.6093 85.7276 49.4828V47.6035C85.7276 46.9535 85.5168 46.7673 85.3227 46.5644C85.1285 46.3615 84.858 46.3114 84.562 46.3114C84.0552 46.3114 83.5739 46.6297 83.3208 46.9614H83.2787C83.1012 46.5636 82.7631 46.3114 82.3239 46.3114C82.0825 46.3204 81.8461 46.3827 81.6315 46.4937C81.417 46.6047 81.2296 46.7617 81.0827 46.9535H81.0573L81.0231 46.4634C81.0231 46.4045 80.9976 46.3448 80.9435 46.3448C80.8876 46.3511 80.8335 46.3684 80.7844 46.3957L80.0412 46.7761C80.0284 46.783 80.0172 46.7927 80.0084 46.8043C79.9996 46.816 79.9935 46.8294 79.9903 46.8437V46.9097C79.9903 46.9352 80.007 46.9519 80.0492 46.9773L80.2266 47.0696C80.4295 47.1794 80.4653 47.3322 80.4653 47.5009V49.0046C80.4653 49.1478 80.4653 49.2998 80.4566 49.4438C80.4478 49.6029 80.4056 49.6547 80.3301 49.6547H80.0428C79.9585 49.6547 79.941 49.6634 79.941 49.7342V49.8862C79.941 49.9451 79.9585 49.9657 80.0086 49.9657C80.0763 49.9657 80.3468 49.9403 80.7947 49.9403C81.2586 49.9403 81.4869 49.9657 81.5633 49.9657C81.6222 49.9657 81.6309 49.9323 81.6309 49.8727V49.7382C81.6309 49.6785 81.6222 49.6586 81.5458 49.6586H81.2419C81.1241 49.6586 81.0732 49.5743 81.0732 49.439V47.7682C81.0732 47.5295 81.0899 47.3704 81.1917 47.2025C81.2744 47.059 81.3922 46.9387 81.534 46.853C81.6757 46.7673 81.8369 46.7189 82.0025 46.7124C82.1879 46.7124 82.4329 46.7633 82.5427 46.8644C82.678 46.9909 82.7965 47.1516 82.7965 47.777L82.7973 49.5122ZM77.8302 49.7827C77.6644 49.7904 77.4995 49.7537 77.3525 49.6765C77.2056 49.5993 77.0818 49.4844 76.994 49.3436C76.7235 48.9553 76.6757 48.6339 76.6757 48.1612C76.6757 47.5192 76.7935 47.1731 77.1229 46.8349C77.2042 46.7441 77.3049 46.6726 77.4176 46.6258C77.5302 46.579 77.6519 46.558 77.7737 46.5644C78.2041 46.5644 78.8876 47.1564 78.8876 48.0936C78.886 48.9975 78.4723 49.7827 77.8302 49.7827ZM77.7291 50.0366C78.7674 50.0366 79.5957 49.0985 79.5957 48.178C79.5993 47.9214 79.5501 47.6669 79.4513 47.4301C79.3525 47.1933 79.2061 46.9794 79.0212 46.8015C78.7012 46.4977 78.28 46.3231 77.8389 46.3114C77.4266 46.3152 77.0276 46.4582 76.7067 46.7172C76.2087 47.1054 75.9803 47.6457 75.9803 48.0769C75.9803 48.676 76.0599 48.9887 76.445 49.4534C76.605 49.6366 76.8024 49.7835 77.0239 49.8841C77.2454 49.9847 77.4859 50.0367 77.7291 50.0366ZM74.3501 46.5819C74.553 46.5819 74.7304 46.6074 74.9158 46.9535C75.0431 47.181 75.1863 47.2908 75.3804 47.2908C75.4209 47.2943 75.4616 47.2892 75.5 47.2759C75.5383 47.2625 75.5734 47.2412 75.6029 47.2133C75.6324 47.1854 75.6557 47.1516 75.6713 47.1141C75.6868 47.0766 75.6943 47.0362 75.6931 46.9956C75.6931 46.8182 75.4226 46.3114 74.5442 46.3114C73.4303 46.3114 72.7373 47.3083 72.7373 48.3005C72.7232 48.7164 72.8578 49.1237 73.1169 49.4494C73.5059 49.9387 73.9785 50.0405 74.4265 50.0405C74.941 50.0273 75.4296 49.8117 75.7862 49.4406C75.8284 49.3897 75.8196 49.3611 75.7862 49.3308L75.7019 49.2465C75.6978 49.2415 75.6926 49.2375 75.6867 49.2347C75.6809 49.2319 75.6745 49.2305 75.668 49.2305C75.6616 49.2305 75.6552 49.2319 75.6493 49.2347C75.6435 49.2375 75.6383 49.2415 75.6342 49.2465C75.347 49.5162 75.1274 49.6093 74.7049 49.6093C74.528 49.6179 74.3517 49.5832 74.1913 49.5082C74.0309 49.4332 73.8912 49.3201 73.7844 49.1789C73.5193 48.8016 73.3695 48.3555 73.3532 47.8947C73.3532 47.0211 73.8687 46.5819 74.3501 46.5819Z" fill="#AFCF6A"/>
</g>
<defs>
<linearGradient id="paint0_linear_4568_133804" x1="12.4746" y1="51.8715" x2="51.6499" y2="51.8715" gradientUnits="userSpaceOnUse">
<stop stop-color="#5AA44B"/>
<stop offset="0.2" stop-color="#5AA44B"/>
<stop offset="0.35" stop-color="#71B561"/>
<stop offset="0.72" stop-color="#A9DC94"/>
<stop offset="0.9" stop-color="#BEEBA8"/>
<stop offset="1" stop-color="#BEEBA8"/>
</linearGradient>
<linearGradient id="paint1_linear_4568_133804" x1="7.70583" y1="40.4978" x2="39.9224" y2="74.1527" gradientUnits="userSpaceOnUse">
<stop stop-color="#FEFEFC"/>
<stop offset="0.14" stop-color="#FAFCF8"/>
<stop offset="0.27" stop-color="#EFF7EB"/>
<stop offset="0.41" stop-color="#DDEED6"/>
<stop offset="0.56" stop-color="#C4E2B9"/>
<stop offset="0.7" stop-color="#A3D293"/>
<stop offset="0.85" stop-color="#7CBF65"/>
<stop offset="0.95" stop-color="#5CB041"/>
<stop offset="1" stop-color="#5CB041"/>
</linearGradient>
<clipPath id="clip0_4568_133804">
<rect width="79.3135" height="42.2417" fill="white" transform="translate(6.91309 30.7583)"/>
</clipPath>
</defs>
</svg>
