<svg width="34" height="16" viewBox="0 0 34 16" fill="none" xmlns="http://www.w3.org/2000/svg">
<g clip-path="url(#clip0_4258_4808)">
<path d="M31.0376 12.885C30.8459 12.7355 30.6539 12.599 30.4622 12.4495C30.4112 12.4088 30.4112 12.4088 30.4528 12.3453C30.4528 12.3453 30.4528 12.3453 30.4532 12.3323C31.1159 11.3947 31.5064 10.3568 31.638 9.21887C31.7113 8.62421 31.6928 8.02636 31.5956 7.42575C31.3557 6.02821 30.7421 4.81235 29.741 3.79069C28.6004 2.63433 27.2188 1.98887 25.6112 1.80291C24.9839 1.72907 24.3665 1.74646 23.7459 1.85462C22.4127 2.0807 21.2511 2.65033 20.2743 3.56397C18.9857 4.76533 18.291 6.24708 18.1385 7.98147C18.092 8.56407 18.1235 9.16239 18.2478 9.73797C18.6187 11.5166 19.5406 12.925 21.0393 13.977C22.0001 14.6467 23.0631 15.0214 24.24 15.1404C24.8022 15.199 25.3667 15.1927 25.9208 15.1082C26.8179 14.9707 27.6685 14.6629 28.4459 14.1967C28.5264 14.1476 28.6204 14.0859 28.7009 14.0368C28.728 14.0118 28.7542 14.0127 28.7795 14.0396C28.7922 14.053 28.8179 14.0669 28.8306 14.0803C29.3806 14.489 29.9175 14.8972 30.4675 15.3059C30.4932 15.3198 30.5186 15.3466 30.5574 15.361C31.0248 14.7541 31.4921 14.1473 31.9595 13.5404C31.9338 13.5265 31.9211 13.5131 31.9084 13.4997C31.6007 13.2942 31.3191 13.0896 31.0376 12.885ZM24.739 13.2493C22.0006 13.1277 20.0054 10.8899 20.0946 8.3354C20.2032 5.5998 22.5151 3.65521 25.071 3.74446C27.7181 3.84988 29.8064 6.052 29.7019 8.67089C29.595 11.3546 27.3346 13.327 24.739 13.2493Z" fill="#101010"/>
<path d="M10.7489 2.02457C10.5817 1.92785 10.4136 1.85707 10.2455 1.78628C9.64979 1.55775 9.02429 1.43205 8.38387 1.35775C7.82164 1.29917 7.2707 1.29291 6.70484 1.33807C6.19142 1.38505 5.69019 1.45843 5.1989 1.62303C3.46108 2.15956 2.20276 3.24513 1.43749 4.86723C1.01259 5.7612 0.834903 6.71573 0.800941 7.68826C0.78781 8.0643 0.800891 8.44126 0.840187 8.81914C0.899809 9.3665 0.999204 9.90227 1.19125 10.4153C1.63273 11.6771 2.41184 12.665 3.56881 13.3546C4.44286 13.8784 5.39196 14.1323 6.39892 14.2324C6.79121 14.272 7.18487 14.2728 7.57898 14.2606C8.11771 14.2405 8.64425 14.1939 9.17305 14.0826C9.55631 14.0051 9.94048 13.9016 10.3007 13.7325C10.3671 13.7088 10.3671 13.7088 10.3432 13.6431C10.298 13.4338 10.2533 13.2115 10.2081 13.0022C10.1394 12.7142 10.0843 12.4136 10.0156 12.1256C10.0043 12.0733 10.0043 12.0733 9.951 12.0974C9.92433 12.1094 9.88456 12.121 9.85789 12.1331C9.60434 12.2541 9.33903 12.3357 9.06152 12.3909C8.46629 12.5259 7.84801 12.5692 7.24509 12.5482C6.72082 12.5299 6.19882 12.4467 5.69263 12.2862C4.53836 11.8954 3.72443 11.1529 3.26486 10.0333C2.9987 9.38786 2.90384 8.72242 2.90162 8.03425C2.90436 7.57995 2.93287 7.13953 3.0138 6.70093C3.09563 6.23641 3.22899 5.79965 3.42743 5.37814C3.80938 4.58654 4.3694 3.95695 5.1581 3.54308C5.78634 3.21448 6.46067 3.06925 7.17025 3.0421C7.61724 3.01876 8.04931 3.04683 8.49313 3.11426C8.96316 3.1826 9.40471 3.31487 9.84446 3.499C9.98682 3.5559 10.1156 3.62532 10.2575 3.69519C10.2711 3.68268 10.2715 3.66971 10.2715 3.66971C10.4474 3.14355 10.6228 2.63036 10.8117 2.10466C10.8004 2.05234 10.7742 2.05142 10.7489 2.02457Z" fill="#101010"/>
<path d="M14.0379 1.78813C14.0248 1.78768 14.0117 1.78722 13.9985 1.78676C13.4218 1.76662 12.8583 1.74694 12.2816 1.7268C12.2685 1.72634 12.2422 1.72543 12.2291 1.72497C12.1898 1.7236 12.1763 1.73611 12.188 1.77547C12.1875 1.78843 12.1866 1.81437 12.1862 1.82734C12.0426 5.9379 11.8991 10.0485 11.7556 14.159C11.7547 14.185 11.7542 14.1979 11.7533 14.2239C11.7524 14.2498 11.765 14.2632 11.7913 14.2641C11.8175 14.265 11.8306 14.2655 11.8568 14.2664C12.4204 14.2861 12.9971 14.3062 13.5607 14.3259C13.6786 14.33 13.6651 14.3426 13.6691 14.2258C13.7407 12.177 13.8122 10.1283 13.8842 8.06649C13.9562 6.00472 14.0273 3.96889 14.0993 1.90713C14.1002 1.88119 14.1007 1.86823 14.1016 1.84229C14.1034 1.79042 14.0776 1.77654 14.0379 1.78813Z" fill="#101010"/>
<path d="M17.2054 5.7681C17.1923 5.76765 17.1661 5.76673 17.153 5.76627C16.5894 5.74659 16.0258 5.72691 15.4622 5.70723C15.3442 5.70311 15.3578 5.6906 15.3537 5.80731C15.3044 7.22072 15.2555 8.62116 15.2061 10.0346C15.1572 11.435 15.1083 12.8355 15.0589 14.2489C15.058 14.2748 15.0576 14.2878 15.0567 14.3137C15.0553 14.3526 15.0675 14.379 15.1068 14.3804C15.1199 14.3808 15.1462 14.3817 15.1593 14.3822C15.7229 14.4019 16.2865 14.4216 16.85 14.4412C16.968 14.4454 16.9544 14.4579 16.9585 14.3412C17.0568 11.5273 17.155 8.71346 17.2538 5.88664C17.2542 5.87367 17.2551 5.84774 17.2556 5.83477C17.2705 5.78336 17.2447 5.76948 17.2054 5.7681Z" fill="#101010"/>
<path d="M15.753 2.65337C15.4172 2.87534 15.2613 3.20745 15.2472 3.60943C15.2504 3.89516 15.3331 4.1577 15.5224 4.37204C15.7498 4.62666 16.0476 4.74092 16.4019 4.74031C17.0319 4.73635 17.507 4.28555 17.5287 3.66313C17.5369 3.42972 17.4921 3.20745 17.3679 3.00837C17.0326 2.46436 16.2773 2.29518 15.753 2.65337Z" fill="#101010"/>
<path d="M32.6471 10.0071C32.5946 10.0053 32.5427 9.99052 32.4907 9.97572C32.295 9.94292 32.1124 9.91058 31.9167 9.87778C31.8778 9.86344 31.8638 9.88892 31.8494 9.92736C31.8326 10.0306 31.8159 10.1339 31.7861 10.2367C31.7716 10.2752 31.7843 10.2886 31.8236 10.29C31.928 10.3066 32.0319 10.3362 32.149 10.3663C32.2791 10.3968 32.4093 10.4273 32.5264 10.4573C32.5526 10.4582 32.5914 10.4726 32.5928 10.4337C32.6235 10.3049 32.6407 10.1887 32.6715 10.0599C32.6855 10.0345 32.6733 10.0081 32.6471 10.0071Z" fill="#101010"/>
<path d="M31.9742 8.24444C31.948 8.24352 31.9345 8.25603 31.9467 8.28242C31.9557 8.39958 31.9521 8.50332 31.9611 8.62048C31.9602 8.64641 31.9729 8.65984 31.9991 8.66075C32.0122 8.66121 32.0384 8.66213 32.0515 8.66259C32.2486 8.65648 32.4587 8.65084 32.6553 8.65771C32.7733 8.66183 32.7733 8.66183 32.7783 8.51919C32.781 8.44138 32.771 8.35016 32.7611 8.25893C32.7629 8.20706 32.7503 8.19364 32.6974 8.20477C32.5265 8.21179 32.3552 8.23177 32.1844 8.23879C32.1189 8.2365 32.0529 8.24718 31.9742 8.24444Z" fill="#101010"/>
<path d="M32.718 9.10143C32.6 9.09731 32.4821 9.09319 32.3641 9.08908L32.3646 9.07611C32.2466 9.07199 32.1155 9.06741 31.9976 9.06329C31.9583 9.06192 31.9447 9.07443 31.9302 9.11287C31.9266 9.21661 31.9099 9.31989 31.9063 9.42363C31.9054 9.44956 31.918 9.46298 31.9442 9.4639C31.9573 9.46436 31.9835 9.46527 31.9967 9.46573C32.219 9.48648 32.4545 9.50768 32.6764 9.5414C32.7157 9.54277 32.7288 9.54323 32.7302 9.50433C32.7343 9.38762 32.7514 9.27138 32.7555 9.15467C32.7835 9.10372 32.7704 9.10326 32.718 9.10143Z" fill="#101010"/>
<path d="M32.4324 10.896C32.1987 10.8229 31.9646 10.7628 31.731 10.6898C31.6921 10.6754 31.6785 10.6879 31.6641 10.7264C31.6342 10.8292 31.6048 10.919 31.575 11.0219C31.5605 11.0603 31.5732 11.0737 31.6121 11.0881C31.8326 11.1607 32.0527 11.2463 32.2864 11.3193C32.3252 11.3337 32.3519 11.3216 32.3664 11.2832C32.3967 11.1674 32.4396 11.065 32.4699 10.9493C32.4703 10.9363 32.4703 10.9363 32.4839 10.9238C32.4717 10.8974 32.4455 10.8965 32.4324 10.896Z" fill="#101010"/>
<path d="M31.8561 7.48715C31.8792 7.57884 31.8891 7.67007 31.899 7.76129C31.9094 7.83955 31.9094 7.83955 31.9885 7.82933C32.1336 7.80843 32.2782 7.8005 32.4233 7.7796C32.5155 7.76984 32.6208 7.76053 32.7135 7.7378C32.6922 7.59425 32.6706 7.46366 32.6489 7.33308C32.6498 7.30714 32.624 7.29326 32.5973 7.30531C32.3596 7.34894 32.1219 7.39257 31.8841 7.4362C31.8579 7.43529 31.8444 7.44779 31.8561 7.48715Z" fill="#101010"/>
<path d="M32.1142 11.7416C31.8941 11.656 31.6745 11.5575 31.4548 11.4589C31.416 11.4446 31.4024 11.4571 31.3884 11.4826C31.3459 11.572 31.303 11.6743 31.2605 11.7637C31.246 11.8022 31.2582 11.8286 31.2971 11.8429C31.3617 11.8711 31.4263 11.8994 31.4905 11.9405C31.6455 12.0109 31.8001 12.0942 31.9682 12.165C32.0252 12.0371 32.0952 11.9097 32.1522 11.7819C32.1657 11.7694 32.14 11.7555 32.1142 11.7416Z" fill="#101010"/>
<path d="M31.661 6.67564C31.6836 6.78029 31.7193 6.8854 31.7419 6.99005C31.7541 7.01645 31.7668 7.02987 31.7934 7.01782C31.8332 7.00622 31.8861 6.99509 31.9259 6.98349C32.1112 6.93803 32.2834 6.89212 32.4687 6.84665C32.5085 6.83506 32.5347 6.83598 32.5234 6.78365C32.4881 6.66557 32.4529 6.5475 32.4181 6.41645C32.4185 6.40349 32.4059 6.39006 32.3928 6.3896C32.3797 6.38915 32.3797 6.38915 32.3661 6.40165C32.1406 6.47168 31.9282 6.54216 31.7031 6.59921C31.6629 6.62377 31.6493 6.63628 31.661 6.67564Z" fill="#101010"/>
<path d="M31.0212 12.2351C30.9656 12.3241 30.9231 12.4134 30.8676 12.5024C30.84 12.5404 30.8526 12.5538 30.891 12.5811C31.0836 12.7047 31.2761 12.8282 31.456 12.9384C31.4944 12.9657 31.5079 12.9532 31.5355 12.9152C31.5916 12.8133 31.6603 12.7248 31.7163 12.6229C31.7443 12.572 31.7443 12.572 31.6928 12.5442C31.4998 12.4336 31.3069 12.323 31.1139 12.2124C31.1012 12.199 31.0881 12.1985 31.0755 12.1851C31.0488 12.1971 31.0348 12.2226 31.0212 12.2351Z" fill="#101010"/>
<path d="M31.3998 5.89978C31.4237 5.96553 31.4481 6.01832 31.4721 6.08407C31.4965 6.13685 31.4942 6.20169 31.5331 6.21603C31.5846 6.24379 31.6388 6.19375 31.6786 6.18216C31.8513 6.12328 32.0244 6.05142 32.197 5.99254C32.2237 5.98049 32.263 5.98186 32.2386 5.92908C32.1903 5.81054 32.1288 5.69155 32.0804 5.57301C32.0678 5.55959 32.0682 5.54662 32.042 5.54571L32.0289 5.54525C31.8287 5.64212 31.6158 5.72557 31.4156 5.82244C31.388 5.86042 31.3876 5.87339 31.3998 5.89978Z" fill="#101010"/>
<path d="M31.0329 5.14749C31.0949 5.25352 31.1437 5.35908 31.2051 5.47807C31.4189 5.36869 31.6191 5.27182 31.8329 5.16244C31.8596 5.15039 31.8605 5.12446 31.8478 5.11103C31.7733 4.99158 31.7113 4.88556 31.6372 4.75314C31.5703 4.78975 31.5166 4.82682 31.4632 4.85093C31.3294 4.92415 31.2088 4.99784 31.0745 5.08403C31.0479 5.09608 31.0212 5.10813 31.0329 5.14749Z" fill="#101010"/>
<path d="M30.5967 4.45695C30.6464 4.53659 30.7092 4.61668 30.759 4.69631C30.7965 4.74955 30.7965 4.74955 30.8502 4.71248C30.998 4.61378 31.1594 4.50257 31.3072 4.40387C31.3208 4.39136 31.3474 4.37931 31.3483 4.35337C31.2733 4.24689 31.1852 4.13995 31.1102 4.03347C31.0849 4.00662 31.0718 4.00616 31.0446 4.03118C30.8964 4.14285 30.7481 4.25451 30.5999 4.36618C30.5723 4.40417 30.5845 4.43056 30.5967 4.45695Z" fill="#101010"/>
<path d="M30.0822 3.78985C30.1581 3.8704 30.2336 3.96391 30.2964 4.044C30.309 4.05743 30.309 4.05743 30.3217 4.07085C30.3348 4.07131 30.3352 4.05834 30.3483 4.0588C30.4971 3.93416 30.6322 3.82204 30.7809 3.6974C30.808 3.67238 30.7954 3.65896 30.7827 3.64553C30.6941 3.55156 30.6051 3.47055 30.5165 3.37658C30.4912 3.34973 30.4781 3.34927 30.451 3.37429C30.329 3.48688 30.2069 3.59946 30.0844 3.72501C30.0573 3.75003 30.0564 3.77596 30.0822 3.78985Z" fill="#101010"/>
<path d="M29.486 3.19761C29.575 3.27861 29.664 3.35962 29.7657 3.45405C29.8887 3.31553 30.0112 3.18998 30.1341 3.05146C30.1346 3.03849 30.1214 3.03804 30.1219 3.02507C30.0455 2.95749 29.9687 2.90287 29.8923 2.83529C29.8539 2.80799 29.829 2.76817 29.7897 2.7668C29.7373 2.76496 29.7219 2.82934 29.6948 2.85436C29.6261 2.94284 29.5579 3.01836 29.4892 3.10684C29.4611 3.15779 29.4476 3.1703 29.486 3.19761Z" fill="#101010"/>
<path d="M28.822 2.66829C28.9115 2.73633 29.001 2.80437 29.0905 2.87241C29.1158 2.89926 29.1293 2.88675 29.1565 2.86173C29.2256 2.76028 29.3079 2.65929 29.3906 2.54533C29.4177 2.52032 29.4055 2.49392 29.3798 2.48004C29.2767 2.42451 29.1741 2.35601 29.0846 2.28798C29.0715 2.28752 29.0589 2.27409 29.0589 2.27409C29.0327 2.27318 29.0322 2.28614 29.0187 2.29865C28.9495 2.4001 28.8934 2.50201 28.8243 2.60346C28.7967 2.64144 28.7963 2.65441 28.822 2.66829Z" fill="#101010"/>
<path d="M28.1031 2.22802C28.193 2.28309 28.296 2.33862 28.386 2.3937C28.4244 2.421 28.4379 2.40849 28.4655 2.37051C28.508 2.28111 28.5636 2.19217 28.6192 2.10323C28.6468 2.06525 28.6341 2.05182 28.5953 2.03748C28.4918 1.99492 28.3887 1.93939 28.2852 1.89683C28.2721 1.89637 28.2595 1.88294 28.2595 1.88294C28.2332 1.88203 28.2197 1.89454 28.2192 1.90751C28.1767 1.9969 28.1347 2.07333 28.0922 2.16273C28.0646 2.20071 28.0773 2.21414 28.1031 2.22802Z" fill="#101010"/>
<path d="M27.3291 1.84982C27.4326 1.89239 27.5361 1.93495 27.6523 1.99094C27.678 2.00482 27.7047 1.99277 27.7187 1.96729C27.7476 1.8904 27.7897 1.81397 27.8186 1.73709L27.8191 1.72412C27.82 1.69819 27.8069 1.69773 27.7942 1.6843C27.6776 1.64128 27.5605 1.61123 27.4439 1.56821C27.4182 1.55433 27.4046 1.56684 27.4037 1.59277C27.3752 1.65669 27.3594 1.73403 27.3309 1.79795C27.2907 1.82252 27.3034 1.83594 27.3291 1.84982Z" fill="#101010"/>
<path d="M26.5111 1.58802C26.6282 1.61808 26.7321 1.64767 26.8487 1.69069C26.8876 1.70503 26.9011 1.69252 26.9025 1.65362C26.9179 1.58925 26.9332 1.52487 26.9622 1.44798C26.8189 1.41701 26.6887 1.3865 26.5581 1.36896C26.5319 1.36804 26.5188 1.36758 26.5043 1.40603C26.4894 1.45744 26.4881 1.49634 26.4732 1.54775C26.4727 1.56072 26.4854 1.57414 26.5111 1.58802Z" fill="#101010"/>
<path d="M25.6779 1.41579C25.7561 1.4315 25.8474 1.44768 25.926 1.45042C26.0698 1.46842 26.0698 1.46842 26.0879 1.32624C26.0892 1.28734 26.0766 1.27392 26.0372 1.27254C25.9193 1.26843 25.8149 1.2518 25.6974 1.23471C25.658 1.23334 25.6449 1.23288 25.6436 1.27178C25.6427 1.29771 25.6418 1.32365 25.6273 1.36209C25.6264 1.38803 25.6391 1.40145 25.6779 1.41579Z" fill="#101010"/>
<path d="M24.8134 1.34705C24.9183 1.35072 25.0231 1.35438 25.1411 1.3585C25.1804 1.35987 25.2071 1.34782 25.2085 1.30892C25.2089 1.29595 25.2098 1.27002 25.2103 1.25705C25.2112 1.23111 25.199 1.20472 25.1596 1.20335C25.1072 1.20152 25.0417 1.19923 24.9893 1.1974C24.9368 1.19557 24.884 1.2067 24.8184 1.20442C24.766 1.20259 24.7524 1.21509 24.7637 1.26742C24.7615 1.33226 24.761 1.34522 24.8134 1.34705Z" fill="#101010"/>
<path d="M27.465 6.59357C27.4383 6.60562 27.4116 6.61768 27.3845 6.64269C26.6455 7.1362 25.907 7.61675 25.168 8.11026C25.0876 8.15938 25.0216 8.17006 24.9447 8.11544C24.6108 7.90904 24.2899 7.70309 23.9554 7.50965C23.9423 7.50919 23.9428 7.49622 23.9297 7.49577C23.9039 7.48188 23.8908 7.48143 23.8768 7.5069C23.8632 7.51941 23.8623 7.54535 23.875 7.55877C23.8872 7.58516 23.9125 7.61201 23.9243 7.65137C24.284 8.24816 24.6441 8.83199 25.0039 9.42878C25.0161 9.45517 25.0287 9.4686 25.0409 9.49499C25.0536 9.50841 25.0662 9.52184 25.0802 9.49636C25.0938 9.48385 25.0943 9.47088 25.1078 9.45837C25.4495 9.06784 25.7917 8.66433 26.1334 8.2738C26.5849 7.74428 27.0365 7.21477 27.4876 6.69822C27.5011 6.68572 27.5147 6.67321 27.5156 6.64727C27.53 6.60883 27.4916 6.58152 27.465 6.59357Z" fill="#101010"/>
</g>
<defs>
<clipPath id="clip0_4258_4808">
<rect width="32" height="14" fill="white" transform="translate(1.05664 0.361328) rotate(2)"/>
</clipPath>
</defs>
</svg>
