<svg width="26" height="26" viewBox="0 0 26 26" fill="none" xmlns="http://www.w3.org/2000/svg">
<path d="M24.5073 16.6347C21.0723 5.37086 21.3088 6.14263 21.2937 6.10416C20.9279 5.1691 20.1803 4.426 19.2425 4.06534C19.1083 4.0137 11.4747 1.94458 11.255 1.8598C10.5811 1.59972 9.62872 1.69906 8.94202 2.28776L2.13443 8.12651C1.36911 8.78262 0.909925 9.73864 0.874625 10.7495L0.49932 21.4969C0.455091 22.7634 1.444 23.8296 2.70378 23.8736L16.8145 24.3663C18.0743 24.4103 19.1352 23.4157 19.1794 22.1492L19.2157 21.1104L23.2076 19.5645C24.3684 19.1096 24.9467 17.8001 24.5073 16.6347ZM16.8636 22.9609L2.75286 22.4682C2.26803 22.4512 1.88759 22.0375 1.90475 21.5459L2.28006 10.7986C2.30167 10.1798 2.58222 9.59493 3.04984 9.19404C8.88218 4.19183 5.27615 7.31304 9.87992 3.3556C10.12 3.14935 10.4442 3.07446 10.7593 3.18162C11.041 3.27659 10.553 2.84988 17.4934 9.69851C17.9318 10.131 18.1709 10.734 18.1493 11.3528L17.774 22.1001C17.7568 22.5917 17.3484 22.9778 16.8636 22.9609ZM22.6971 18.2541L19.269 19.5816L19.5547 11.4018C19.59 10.391 19.1986 9.40524 18.481 8.69744L13.727 4.00618L18.7679 5.38983C19.3158 5.61004 19.7534 6.04625 19.9748 6.5932C23.4033 17.8356 23.1719 17.081 23.1873 17.12C23.3637 17.5703 23.1426 18.0795 22.6971 18.2541Z" fill="black"/>
<path d="M12.2333 10.476C11.8807 10.3133 11.4629 10.4674 11.3002 10.82L7.59454 18.8539C7.38313 19.3122 7.71009 19.8339 8.20817 19.8513C8.48275 19.8609 8.74925 19.7081 8.87155 19.443L12.5772 11.4091C12.7399 11.0564 12.5859 10.6387 12.2333 10.476Z" fill="black"/>
<path d="M8.86855 12.3868C8.91591 11.0305 7.96113 9.89242 6.74014 9.84978C5.51914 9.80715 4.48735 10.8759 4.43999 12.2321C4.39263 13.5883 5.34741 14.7264 6.5684 14.7691C7.78939 14.8117 8.82119 13.743 8.86855 12.3868ZM6.61748 13.3636C6.17903 13.3483 5.82546 12.8526 5.84542 12.2812C5.86537 11.7097 6.25261 11.2399 6.6911 11.2552C7.1296 11.2705 7.48312 11.7662 7.46316 12.3377C7.44316 12.9091 7.05592 13.379 6.61748 13.3636Z" fill="black"/>
<path d="M13.6362 15.6711C12.4152 15.6284 11.3833 16.6972 11.336 18.0534C11.2886 19.4096 12.2434 20.5477 13.4644 20.5904C14.6854 20.633 15.7172 19.5643 15.7646 18.208C15.812 16.8518 14.8571 15.7137 13.6362 15.6711ZM13.5135 19.1849C13.075 19.1696 12.7215 18.6739 12.7414 18.1025C12.7614 17.531 13.1486 17.0612 13.5871 17.0765C14.0256 17.0918 14.3791 17.5875 14.3592 18.159C14.3392 18.7304 13.9519 19.2002 13.5135 19.1849Z" fill="black"/>
</svg>
