<svg width="26" height="24" viewBox="0 0 26 24" fill="none" xmlns="http://www.w3.org/2000/svg">
<path d="M11.9902 18.6328C12.1782 18.6328 12.3584 18.5582 12.4913 18.4253C12.6242 18.2924 12.6989 18.1121 12.6989 17.9242V16.573H13.2752C13.7721 16.5727 14.2577 16.4251 14.6707 16.1489C15.0837 15.8727 15.4056 15.4803 15.5957 15.0212C15.7858 14.5622 15.8356 14.0571 15.7387 13.5697C15.6419 13.0824 15.4028 12.6347 15.0516 12.2832C14.8187 12.0494 14.5419 11.8639 14.237 11.7374C13.9322 11.6109 13.6053 11.5459 13.2752 11.5462H12.6989V9.36354H14.5886C14.7766 9.36354 14.9568 9.28888 15.0897 9.15598C15.2226 9.02308 15.2973 8.84283 15.2973 8.65488C15.2973 8.46693 15.2226 8.28668 15.0897 8.15378C14.9568 8.02088 14.7766 7.94622 14.5886 7.94622H12.6989V6.61393C12.6989 6.42599 12.6242 6.24574 12.4913 6.11284C12.3584 5.97994 12.1782 5.90527 11.9902 5.90527C11.8023 5.90527 11.622 5.97994 11.4891 6.11284C11.3562 6.24574 11.2815 6.42599 11.2815 6.61393V7.94622H10.7052C10.1984 7.93669 9.70061 8.0806 9.2771 8.35905C8.8536 8.6375 8.52417 9.03749 8.33207 9.50652C8.13996 9.97555 8.09414 10.4917 8.20063 10.9872C8.30713 11.4828 8.56095 11.9345 8.92879 12.2832C9.16216 12.5158 9.4393 12.6998 9.74419 12.8247C10.0491 12.9496 10.3757 13.0128 10.7052 13.0108H11.2815V15.1179H8.90044C8.71249 15.1179 8.53224 15.1925 8.39934 15.3254C8.26644 15.4583 8.19178 15.6386 8.19178 15.8265C8.19178 16.0145 8.26644 16.1947 8.39934 16.3276C8.53224 16.4605 8.71249 16.5352 8.90044 16.5352H11.2815V17.9525C11.2889 18.1355 11.3668 18.3086 11.4989 18.4354C11.631 18.5622 11.8071 18.633 11.9902 18.6328ZM12.6989 12.9635H13.2752C13.5653 12.9667 13.8429 13.0818 14.05 13.2848C14.2099 13.437 14.3201 13.6339 14.3662 13.8497C14.4123 14.0655 14.3922 14.2903 14.3085 14.4945C14.2247 14.6987 14.0813 14.8728 13.897 14.9942C13.7126 15.1155 13.4959 15.1784 13.2752 15.1746H12.6989V12.9635ZM10.7052 11.5462C10.5612 11.5467 10.4185 11.5185 10.2855 11.4634C10.1525 11.4082 10.0318 11.3272 9.93036 11.225C9.82843 11.1253 9.74749 11.0062 9.69232 10.8748C9.63714 10.7433 9.60885 10.6022 9.6091 10.4596C9.6091 10.1689 9.72458 9.89012 9.93013 9.68457C10.1357 9.47902 10.4145 9.36354 10.7052 9.36354H11.2815V11.5462H10.7052Z" fill="#101010"/>
<path d="M18.4906 19.8428C18.5441 19.7099 18.6361 19.5961 18.7548 19.5159C18.8735 19.4357 19.0135 19.3929 19.1567 19.3929C19.3 19.3929 19.4399 19.4357 19.5586 19.5159C19.6773 19.5961 19.7694 19.7099 19.8229 19.8428C19.8603 19.9293 19.8796 20.0225 19.8796 20.1168C19.8796 20.2111 19.8603 20.3043 19.8229 20.3908L19.2654 21.5814L23.6496 19.2381L19.2843 16.9042L19.8229 18.0853C19.8601 18.1702 19.8793 18.2619 19.8793 18.3546C19.8793 18.4473 19.8601 18.539 19.8229 18.6239C19.7888 18.713 19.7368 18.7941 19.6702 18.8624C19.6036 18.9306 19.5237 18.9845 19.4355 19.0207C19.2624 19.0975 19.0661 19.1028 18.8892 19.0356C18.7122 18.9684 18.569 18.834 18.4906 18.6617L17.0733 15.5719C17.0114 15.4337 16.9955 15.2793 17.0278 15.1314C17.0601 14.9834 17.139 14.8497 17.2528 14.7499C17.3651 14.6513 17.5043 14.5887 17.6526 14.5702C17.8008 14.5517 17.9512 14.5781 18.0843 14.6459L25.4922 18.6144C25.6064 18.6736 25.7022 18.763 25.7689 18.8731C25.8356 18.9831 25.8706 19.1094 25.8701 19.2381C25.8695 19.3665 25.8341 19.4924 25.7675 19.6022C25.7009 19.7121 25.6058 19.8017 25.4922 19.8617L18.0843 23.8207C17.9762 23.8765 17.8563 23.9056 17.7347 23.9058C17.5571 23.9093 17.3848 23.8451 17.2528 23.7262C17.141 23.627 17.0634 23.495 17.0312 23.3491C16.9989 23.2031 17.0137 23.0507 17.0733 22.9137L18.4906 19.8428Z" fill="#101010"/>
<path d="M11.9906 3.72327e-06C8.81046 3.72327e-06 5.76062 1.26329 3.51195 3.51195C1.26329 5.76062 0 8.81046 0 11.9906C0 15.1706 1.26329 18.2205 3.51195 20.4692C5.76062 22.7178 8.81046 23.9811 11.9906 23.9811C12.8354 23.9834 13.6781 23.8947 14.5039 23.7165C14.6105 23.6954 14.7116 23.6527 14.801 23.5909C14.8904 23.5292 14.9662 23.4497 15.0236 23.3575C15.1126 23.2218 15.1595 23.0629 15.1584 22.9007C15.1572 22.7384 15.1081 22.5802 15.0171 22.4458C14.9262 22.3114 14.7976 22.207 14.6474 22.1456C14.4972 22.0842 14.3322 22.0686 14.1732 22.1008C12.0833 22.5482 9.90605 22.3367 7.94124 21.4956C5.97642 20.6544 4.32065 19.2249 3.20185 17.4039C2.08304 15.5828 1.55623 13.4597 1.69391 11.3269C1.8316 9.194 2.62703 7.15626 3.97069 5.49416C5.31435 3.83206 7.14019 2.62732 9.19684 2.04578C11.2535 1.46424 13.4398 1.5345 15.4549 2.24689C17.47 2.95928 19.2147 4.27877 20.4489 6.02371C21.683 7.76866 22.346 9.85326 22.3465 11.9906C22.3465 12.3402 22.3465 12.6803 22.2992 13.0299C22.2856 13.1377 22.2946 13.247 22.3255 13.3511C22.3564 13.4552 22.4086 13.5518 22.4787 13.6346C22.6201 13.8004 22.8202 13.9048 23.037 13.926C23.2537 13.9471 23.4703 13.8833 23.6409 13.748C23.8083 13.6069 23.9163 13.4078 23.9433 13.1906C23.9433 12.8032 24 12.3969 24 11.9906C23.9988 10.4147 23.6871 8.8545 23.0829 7.39907C22.4787 5.94364 21.5938 4.62147 20.4786 3.50804C19.3634 2.39461 18.0399 1.51174 16.5835 0.909832C15.1271 0.307923 13.5664 -0.0012376 11.9906 3.72327e-06Z" fill="#101010"/>
</svg>
