<svg width="72" height="34" viewBox="0 0 72 34" fill="none" xmlns="http://www.w3.org/2000/svg">
<path d="M52.7504 16.7503V31.2381C52.7504 32.5636 51.6782 33.6358 50.3527 33.6358C49.0525 33.6358 47.9887 32.5974 47.9549 31.3056V16.7841C47.9549 15.4586 46.8827 14.3863 45.5572 14.3863C44.2317 14.3863 43.1594 15.4586 43.1594 16.7841V26.4595C43.1594 30.4107 39.9512 33.619 36 33.619H35.9324C31.9728 33.619 28.7729 30.4107 28.7729 26.4595V19.2409C28.7729 17.9154 29.8452 16.8432 31.1707 16.8432C32.4709 16.8432 33.5347 17.8816 33.5684 19.1734V26.4257C33.5684 27.7512 34.6407 28.8235 35.9662 28.8235C37.2917 28.8235 38.3639 27.7512 38.3639 26.4257V16.7503C38.3639 12.7991 41.5722 9.59082 45.5234 9.59082H45.591C49.5422 9.59082 52.7504 12.7906 52.7504 16.7503Z" fill="white"/>
<path d="M21.5882 33.6279C20.2627 33.6279 19.1904 32.5557 19.1904 31.2302V2.40654C19.1904 1.08102 20.2627 0.00878906 21.5882 0.00878906C22.9137 0.00878906 23.9859 1.08102 23.9859 2.40654V31.2302C23.9859 32.5557 22.9137 33.6279 21.5882 33.6279Z" fill="white"/>
<path d="M4.7955 9.59944V2.39775C4.7955 1.07223 3.72326 0 2.39775 0C1.07223 0 0 1.07223 0 2.39775V26.5188C0 30.4447 3.18293 33.6276 7.10882 33.6276H7.28612C11.212 33.6276 14.3949 30.4447 14.3949 26.5188V16.7589C14.3949 12.8077 11.1867 9.59944 7.23546 9.59944H4.7955ZM7.19325 28.8321C5.86773 28.8321 4.7955 27.7599 4.7955 26.4343V16.7927C4.7955 15.4672 5.86773 14.3949 7.19325 14.3949C8.51876 14.3949 9.59099 15.4672 9.59099 16.7927V26.4259C9.59099 27.7598 8.51876 28.8321 7.19325 28.8321Z" fill="white"/>
<path d="M72 16.8181L71.9916 12.0226C71.9916 10.6971 70.9194 9.62489 69.5938 9.62489C68.2683 9.62489 67.1961 10.6971 67.1961 12.0226V16.8181C67.1961 18.1437 66.1239 19.2159 64.7983 19.2159C63.4728 19.2159 62.4006 18.1437 62.4006 16.8181V2.44853C62.4006 1.12301 61.3284 0.0507812 60.0029 0.0507812C58.6773 0.0507812 57.6051 1.12301 57.6051 2.44853V31.23C57.6051 32.5555 58.6773 33.6277 60.0029 33.6277C61.3284 33.6277 62.4006 32.5555 62.4006 31.23V26.426C62.4006 25.1005 63.4728 24.0283 64.7983 24.0283C66.1239 24.0283 67.1961 25.1005 67.1961 26.426V31.2215C67.1961 32.547 68.2683 33.6193 69.5938 33.6193C70.9194 33.6193 71.9916 32.547 71.9916 31.2215L72 26.426C72 24.577 71.2993 22.8969 70.1511 21.6221C71.2993 20.3472 72 18.6671 72 16.8181Z" fill="white"/>
<path d="M31.1623 14.3863C29.8368 14.3863 28.7645 13.3141 28.7645 11.9886C28.7645 10.6631 29.8368 9.59082 31.1623 9.59082C32.4878 9.59082 33.56 10.6631 33.56 11.9886C33.5685 13.3141 32.4878 14.3863 31.1623 14.3863Z" fill="black"/>
</svg>
