<svg width="75" height="187" viewBox="0 0 75 187" fill="none" xmlns="http://www.w3.org/2000/svg">
<path d="M22.6 -62H66.9C71 -62 74.2 -58.7 74.2 -54.7C74.2 -50.6 70.9 -47.4 66.9 -47.4H22.7C18.5 -47.4 15.1 -43.8 15.4 -39.6C15.7 -35.7 19.1 -32.7 23 -32.7H52.4C64.5 -32.7 74.3 -22.9 74.3 -10.8V-10.6C74.3 1.5 64.5 11.3 52.4 11.3H23C19.1 11.3 15.7 14.3 15.4 18.2C15.1 22.5 18.5 26 22.7 26H52.4C64.5 26 74.3 35.8 74.3 47.9V48.1C74.3 60.2 64.5 70 52.4 70H22.8C18.6 70 15.2 73.6 15.5 77.8C15.8 81.7 19.2 84.7 23.1 84.7H52.4C64.5 84.7 74.3 94.5 74.3 106.6V106.8C74.3 118.9 64.5 128.7 52.4 128.7H23C19.1 128.7 15.7 131.7 15.4 135.6C15.1 139.9 18.5 143.4 22.7 143.4H52.4C64.5 143.4 74.3 153.2 74.3 165.3V165.5C74.3 177.6 64.5 187.4 52.4 187.4H30.3C26.2 187.4 23 184.1 23 180.1C23 176.1 26.2 172.9 30.1 172.7H52.3C56.4 172.7 59.6 169.4 59.6 165.4C59.6 161.3 56.3 158.1 52.3 158.1H22.7C10.6 158.1 0.799988 148.3 0.799988 136.2V136C0.799988 123.9 10.6 114.1 22.7 114.1H52.1C56 114.1 59.4 111.2 59.7 107.3C60 103 56.6 99.5 52.4 99.5H22.8C10.7 99.5 0.899994 89.7 0.899994 77.6V77.4C0.899994 65.3 10.7 55.5 22.8 55.5H52.4C56.5 55.5 59.7 52.2 59.7 48.2C59.7 44.1 56.4 40.9 52.4 40.9H22.8C10.7 40.9 0.899994 31.1 0.899994 19V18.8C0.899994 6.7 10.7 -3.1 22.8 -3.1H52.2C56.1 -3.1 59.5 -6 59.8 -9.9C60.1 -14.2 56.7 -17.7 52.5 -17.7H22.9C10.8 -17.7 1 -27.5 1 -39.6V-39.8C0.7 -52.2 10.5 -62 22.6 -62Z" fill="white"/>
<path d="M30.25 187.4C34.3093 187.4 37.6 184.109 37.6 180.05C37.6 175.991 34.3093 172.7 30.25 172.7C26.1907 172.7 22.9 175.991 22.9 180.05C22.9 184.109 26.1907 187.4 30.25 187.4Z" fill="#FFE816"/>
</svg>
