<svg width="196" height="112" viewBox="0 0 196 112" fill="none" xmlns="http://www.w3.org/2000/svg">
<path d="M300.841 89.6485V112.001C296.031 111.882 291.486 110.76 287.384 108.812C276.11 103.467 268.319 91.9811 268.319 78.6939V33.6944C268.319 27.5232 263.331 22.5331 257.163 22.5331C251.025 22.5331 246.008 27.5232 246.008 33.6944V53.389C246.008 53.5071 246.008 79.9636 246.008 79.9636C245.713 89.3827 241.493 97.798 234.941 103.644C229.098 108.841 221.395 112.001 212.954 112.001H212.394C207.318 112.001 202.478 110.849 198.169 108.812C186.984 103.497 179.222 92.1583 179.104 78.9891V33.6944C179.104 27.5232 174.117 22.5331 167.949 22.5331C161.81 22.5331 156.793 27.5232 156.793 33.6944V53.389C156.793 53.5071 156.793 79.9636 156.793 79.9636C156.498 89.3827 152.278 97.798 145.726 103.644C139.883 108.841 132.18 112.001 123.74 112.001H123.179C118.073 112.001 113.263 110.849 108.925 108.812C97.6512 103.467 89.86 91.9811 89.86 78.6939V33.6944C89.86 27.5232 84.8725 22.5331 78.7045 22.5331C72.566 22.5331 67.5785 27.5232 67.5785 33.6944V53.389C67.5785 53.5071 67.5785 79.9636 67.5785 79.9636C67.2833 89.3827 63.0631 97.798 56.5115 103.644C50.6681 108.841 42.9655 112.001 34.525 112.001H33.9643C15.5783 112.001 0.674805 97.0893 0.674805 78.6939V11.4308C0.674805 5.25963 5.66232 0.269531 11.8303 0.269531C17.8803 0.269531 22.8088 5.112 22.9859 11.1356V78.5758C22.9859 84.7469 27.9734 89.7075 34.1414 89.7075C40.3094 89.7075 45.2969 84.7174 45.2969 78.5758L45.3264 32.3361C45.6215 22.9169 49.8418 14.5016 56.3934 8.65526C62.2368 3.45846 69.9394 0.299051 78.3798 0.299051H78.9406C84.0756 0.299051 88.9156 1.45062 93.2539 3.51753C104.468 8.86196 112.23 20.3185 112.23 33.6058V78.6053C112.23 84.7765 117.218 89.7371 123.386 89.7371C129.524 89.7371 134.512 84.7469 134.512 78.6053L134.541 32.3656C134.836 22.9464 139.056 14.5312 145.608 8.68479C151.451 3.488 159.154 0.328571 167.595 0.328571H168.155C173.29 0.328571 178.13 1.48014 182.469 3.54705C193.624 8.86195 201.327 20.2004 201.445 33.34V78.6348C201.445 84.806 206.432 89.7666 212.6 89.7666C218.739 89.7666 223.756 84.7765 223.756 78.6348L223.785 32.3952C224.051 22.976 228.301 14.5607 234.852 8.71431C240.696 3.51752 248.398 0.358109 256.839 0.358109H257.4C262.535 0.358109 267.375 1.50966 271.713 3.57657C282.927 8.921 290.689 20.3776 290.689 33.6648V78.6643C290.63 84.3926 295.116 89.176 300.841 89.6485Z" fill="white"/>
<path d="M22.9859 11.2824C22.9859 17.4536 17.9983 22.4437 11.8303 22.4437C5.66232 22.4437 0.674805 17.4536 0.674805 11.2824C0.674805 5.11119 5.66232 0.121094 11.8303 0.121094C17.9983 0.121094 22.9859 5.14072 22.9859 11.2824Z" fill="#FFE816"/>
</svg>
