<svg width="75" height="204" viewBox="0 0 75 204" fill="none" xmlns="http://www.w3.org/2000/svg">
<path d="M22.6 -46H66.9C71 -46 74.2 -42.7 74.2 -38.7C74.2 -34.6 70.9 -31.4 66.9 -31.4H22.7C18.5 -31.4 15.1 -27.8 15.4 -23.6C15.7 -19.7 19.1 -16.7 23 -16.7H52.4C64.5 -16.7 74.3 -6.9 74.3 5.2V5.4C74.3 17.5 64.5 27.3 52.4 27.3H23C19.1 27.3 15.7 30.3 15.4 34.2C15.1 38.5 18.5 42 22.7 42H52.4C64.5 42 74.3 51.8 74.3 63.9V64.1C74.3 76.2 64.5 86 52.4 86H22.8C18.6 86 15.2 89.6 15.5 93.8C15.8 97.7 19.2 100.7 23.1 100.7H52.4C64.5 100.7 74.3 110.5 74.3 122.6V122.8C74.3 134.9 64.5 144.7 52.4 144.7H23C19.1 144.7 15.7 147.7 15.4 151.6C15.1 155.9 18.5 159.4 22.7 159.4H52.4C64.5 159.4 74.3 169.2 74.3 181.3V181.5C74.3 193.6 64.5 203.4 52.4 203.4H30.3C26.2 203.4 23 200.1 23 196.1C23 192.1 26.2 188.9 30.1 188.7H52.3C56.4 188.7 59.6 185.4 59.6 181.4C59.6 177.3 56.3 174.1 52.3 174.1H22.7C10.6 174.1 0.799988 164.3 0.799988 152.2V152C0.799988 139.9 10.6 130.1 22.7 130.1H52.1C56 130.1 59.4 127.2 59.7 123.3C60 119 56.6 115.5 52.4 115.5H22.8C10.7 115.5 0.899994 105.7 0.899994 93.6V93.4C0.899994 81.3 10.7 71.5 22.8 71.5H52.4C56.5 71.5 59.7 68.2 59.7 64.2C59.7 60.1 56.4 56.9 52.4 56.9H22.8C10.7 56.9 0.899994 47.1 0.899994 35V34.8C0.899994 22.7 10.7 12.9 22.8 12.9H52.2C56.1 12.9 59.5 10 59.8 6.1C60.1 1.8 56.7 -1.7 52.5 -1.7H22.9C10.8 -1.7 1 -11.5 1 -23.6V-23.8C0.7 -36.2 10.5 -46 22.6 -46Z" fill="white"/>
</svg>
