<svg width="304" height="118" viewBox="0 0 304 118" fill="none" xmlns="http://www.w3.org/2000/svg">
<path d="M151.826 49.885L151.798 84.1686C151.487 94.1174 147.05 102.992 140.126 109.182C133.965 114.665 125.825 118 116.922 118H116.329C110.959 118 105.844 116.785 101.293 114.637C89.3948 108.984 81.1704 96.8872 81.1704 82.8402V35.3576C81.1704 28.857 75.9136 23.6 69.4132 23.6C62.9129 23.6 57.6561 28.857 57.6561 35.3576L57.6278 84.1686C57.3452 94.1174 52.8797 102.992 45.9554 109.182C39.7942 114.665 31.6546 118 22.752 118H22.1585C2.74217 118 -13 102.257 -13 82.8402V11.8141C-13 5.31353 -7.71493 0.0282566 -1.21457 0.0282566C5.17274 0.0282566 10.373 5.14395 10.5709 11.475V82.6424C10.5709 89.143 15.8277 94.4 22.328 94.4C28.8284 94.4 34.0852 89.143 34.0852 82.6424L34.1135 33.8314C34.4244 23.8826 38.8616 15.0079 45.7859 8.81821C51.9471 3.33509 60.0866 0 68.9893 0H69.5828C74.9809 0 80.1247 1.21532 84.7032 3.41987C96.5452 9.07257 104.741 21.1693 104.741 35.1598V82.6424C104.741 89.143 109.998 94.4 116.498 94.4C122.999 94.4 128.256 89.143 128.256 82.6424V49.8568H151.826V49.885Z" fill="white"/>
<path d="M303.85 94.3717V117.972C298.763 117.859 293.958 116.672 289.663 114.608C277.764 108.984 269.54 96.8589 269.54 82.812V35.3293C269.54 28.8287 264.283 23.5717 257.783 23.5717C251.282 23.5717 246.025 28.8287 246.025 35.3293L245.997 84.1404C245.714 94.0891 241.249 102.964 234.325 109.154C228.164 114.637 220.052 117.972 211.121 117.972H210.528C205.158 117.972 200.071 116.756 195.492 114.608C183.678 109.012 175.482 97.0285 175.369 83.1229V35.3293C175.369 28.8287 170.113 23.5717 163.612 23.5717C157.112 23.5717 151.855 28.8287 151.855 35.3293V49.8568H128.312V33.8314C128.595 23.8826 133.06 15.0079 139.985 8.81821C146.146 3.33509 154.286 0 163.188 0H163.782C169.18 0 174.324 1.21532 178.902 3.41987C190.659 9.0443 198.827 20.9715 198.94 34.8489V82.6424C198.94 89.143 204.197 94.4 210.697 94.4C217.198 94.4 222.455 89.143 222.455 82.6424L222.483 33.8314C222.765 23.8826 227.231 15.0079 234.155 8.81821C240.316 3.33509 248.456 0 257.359 0H257.952C263.379 0 268.494 1.21532 273.073 3.41987C284.886 9.10083 293.082 21.1693 293.082 35.188V82.6707C293.082 88.8038 297.83 93.863 303.85 94.3717Z" fill="#010202"/>
<path d="M151.827 49.7996C151.827 56.3002 146.542 61.5854 140.041 61.5854C133.541 61.5854 128.256 56.3002 128.256 49.7996C128.256 43.299 133.541 38.0137 140.041 38.0137C146.542 38.0419 151.827 43.299 151.827 49.7996Z" fill="#E53E51"/>
</svg>
