<svg width="28" height="24" viewBox="0 0 28 24" fill="none" xmlns="http://www.w3.org/2000/svg">
<path d="M19.1108 13.5165V15.2936C19.1108 16.7907 17.9132 17.7391 16.6725 17.7672C15.9249 17.7842 15.1617 17.4669 14.6354 16.7341C14.3338 16.3142 14.1716 15.8103 14.1717 15.2933C14.1717 12.8735 14.1717 10.7727 14.1717 8.8277C14.1717 8.50753 14.0989 8.19187 13.9586 7.90409L13.9153 7.81518C12.792 5.51094 9.29507 6.31714 9.29507 8.90341C9.29514 14.3032 9.29514 10.8593 9.29514 15.4096C9.29514 17.5968 6.6379 18.6774 5.11103 17.1114C4.66707 16.656 4.41856 16.0452 4.41856 15.4093V8.7393C4.41856 6.93747 2.63616 5.87455 1.13751 6.39879" stroke="#3CB4E5" stroke-width="2" stroke-miterlimit="10" stroke-linecap="round" stroke-linejoin="round"/>
<path d="M19.1117 13.6311C19.1117 9.08081 19.1117 14.3029 19.1116 8.90312C19.1116 6.31685 22.6085 5.51065 23.7318 7.81489L23.7752 7.9038C23.9154 8.19158 23.9883 8.50724 23.9883 8.82741C23.9883 10.7724 23.9883 12.8732 23.9882 15.293C23.9882 15.8101 24.1504 16.3139 24.452 16.7339C24.9782 17.4667 25.7415 17.7839 26.4891 17.7669C26.6612 17.763 26.8325 17.7414 26.9999 17.7031" stroke="#3CB4E5" stroke-width="2" stroke-miterlimit="10" stroke-linecap="round" stroke-linejoin="round"/>
</svg>
