<svg width="17" height="18" viewBox="0 0 17 18" fill="none" xmlns="http://www.w3.org/2000/svg">
<path d="M12.5148 2.67631C10.3684 0.505874 6.81492 0.39651 4.54808 2.62069C2.32704 4.79988 2.33673 8.23008 4.29186 10.4129C4.881 11.0707 5.20546 11.9059 5.20546 12.7647V13.7843C5.20546 14.3831 5.60222 14.8908 6.14663 15.0587V15.6039C6.14663 16.3737 6.68984 17 7.3576 17H9.64155C10.3093 17 10.8525 16.3737 10.8525 15.6039V15.0587C11.3969 14.8908 11.7937 14.3831 11.7937 13.7843V12.7647C11.7937 11.9059 12.1182 11.0707 12.7074 10.4129C14.6716 8.21966 14.6432 4.82846 12.5148 2.67631ZM9.64152 16.0588H7.35757C7.2328 16.0588 7.08777 15.8601 7.08777 15.6039V15.1176H9.91129V15.6039C9.91132 15.8601 9.76628 16.0588 9.64152 16.0588ZM10.8525 13.7843C10.8525 14.0005 10.6766 14.1764 10.4603 14.1764H6.53878C6.32253 14.1764 6.14663 14.0005 6.14663 13.7843V13.2353H10.8525V13.7843ZM12.0062 9.78493C11.3698 10.4955 10.9782 11.3725 10.8783 12.2941H6.12087C6.02086 11.3726 5.62933 10.4955 4.99294 9.78496C4.2112 8.91221 3.78535 7.78541 3.79382 6.61211C3.81252 4.03257 5.93819 1.91177 8.55628 1.94148C11.1198 1.97166 13.2054 4.08255 13.2054 6.647C13.2054 7.80715 12.7795 8.92156 12.0062 9.78493Z" fill="#3CB4E5" stroke="#3CB4E5" stroke-width="0.291667"/>
</svg>
