<svg width="16" height="17" viewBox="0 0 16 17" fill="none" xmlns="http://www.w3.org/2000/svg">
<g clip-path="url(#clip0_3909_2508)">
<path d="M13.3334 6.5H7.33341C6.59703 6.5 6.00008 7.09695 6.00008 7.83333V13.8333C6.00008 14.5697 6.59703 15.1667 7.33341 15.1667H13.3334C14.0698 15.1667 14.6667 14.5697 14.6667 13.8333V7.83333C14.6667 7.09695 14.0698 6.5 13.3334 6.5Z" stroke="#6FD5FF" stroke-width="1.8" stroke-linecap="round" stroke-linejoin="round"/>
<path d="M3.3333 10.4997H2.66663C2.31301 10.4997 1.97387 10.3592 1.72382 10.1092C1.47377 9.8591 1.3333 9.51996 1.3333 9.16634V3.16634C1.3333 2.81272 1.47377 2.47358 1.72382 2.22353C1.97387 1.97348 2.31301 1.83301 2.66663 1.83301H8.66663C9.02025 1.83301 9.35939 1.97348 9.60944 2.22353C9.85949 2.47358 9.99996 2.81272 9.99996 3.16634V3.83301" stroke="#6FD5FF" stroke-width="1.8" stroke-linecap="round" stroke-linejoin="round"/>
</g>
<defs>
<clipPath id="clip0_3909_2508">
<rect width="16" height="16" fill="white" transform="translate(0 0.5)"/>
</clipPath>
</defs>
</svg>
