<svg width="32" height="34" viewBox="0 0 32 34" fill="none" xmlns="http://www.w3.org/2000/svg">
<path d="M27.5523 14.2278H27.4731V12.2872C27.4731 6.05345 22.4197 1 16.1859 1C9.95208 1 4.89871 6.05345 4.89871 12.2872V14.2278H4.42349C2.68089 14.2278 1.33437 15.7723 1.33437 17.5546V22.5051C1.29047 24.2324 2.65526 25.6683 4.38263 25.7122C4.39627 25.7126 4.40984 25.7128 4.42349 25.713H7.35417C7.76928 25.6935 8.09001 25.3411 8.07045 24.926C8.06977 24.911 8.06863 24.8961 8.06704 24.8812V15.1782C8.06704 14.703 7.78982 14.2277 7.35417 14.2277H6.48287V12.2871C6.48287 6.92831 10.8271 2.58409 16.1859 2.58409C21.5447 2.58409 25.8889 6.92831 25.8889 12.2871V14.2277H25.0176C24.5819 14.2277 24.3047 14.7029 24.3047 15.1782V24.8812C24.2605 25.2944 24.5597 25.6653 24.9729 25.7095C24.9877 25.7111 25.0027 25.7122 25.0176 25.7129H25.9285L25.8493 25.8317C24.6609 27.4111 22.7961 28.3361 20.8195 28.3267C20.3868 26.205 18.316 24.8358 16.1943 25.2685C14.3799 25.6385 13.0717 27.2275 13.0571 29.0792C13.0788 31.251 14.8457 33.0002 17.0175 33C18.0927 32.9826 19.1175 32.5414 19.869 31.7723C20.3761 31.253 20.7083 30.5884 20.8195 29.8712C23.2947 29.8806 25.629 28.7208 27.1166 26.7425L27.8691 25.6336C29.572 25.5148 30.6413 24.4455 30.6413 22.9009V17.9504C30.6414 16.2476 29.3741 14.2278 27.5523 14.2278ZM6.48287 24.1288H4.42349C3.57068 24.108 2.89617 23.3999 2.91694 22.5471C2.91732 22.5331 2.91785 22.5191 2.91853 22.505V17.5545C2.91853 16.6436 3.55219 15.8119 4.42349 15.8119H6.48287V24.1288ZM18.7206 30.6635C18.2817 31.1394 17.665 31.4119 17.0176 31.416C15.7291 31.3955 14.6834 30.3673 14.6414 29.0793C14.6408 27.7888 15.6866 26.7422 16.9771 26.7417C18.2676 26.7412 19.3141 27.7869 19.3147 29.0774C19.3147 29.078 19.3147 29.0787 19.3147 29.0793C19.3476 29.6673 19.132 30.2421 18.7206 30.6635ZM29.0572 22.9011C29.0572 23.9704 28.0275 24.1288 27.5523 24.1288H25.8889V15.8119H27.5523C28.4236 15.8119 29.0572 17.0397 29.0572 17.9506V22.9011Z" fill="#090909" stroke="#090909" stroke-width="0.8"/>
</svg>
