<svg width="30" height="30" viewBox="0 0 30 30" fill="none" xmlns="http://www.w3.org/2000/svg">
<path d="M1.64118 29.5885H11.1698C11.8549 29.5885 12.4154 29.028 12.4154 28.3429V22.4264C12.4154 20.9317 13.5987 19.7484 15.0934 19.7484C16.5881 19.7484 17.7714 20.9317 17.7714 22.4264V28.3429C17.7714 29.028 18.3319 29.5885 19.017 29.5885H28.4211C29.1061 29.5885 29.6667 29.028 29.6667 28.3429V12.3995C29.6667 11.2785 29.1061 10.2198 28.2342 9.59699L15.7162 0.566553C15.2802 0.255159 14.7197 0.255159 14.2838 0.566553L1.76574 9.59699C0.893831 10.2198 0.333323 11.2785 0.333323 12.3995V28.4052C0.395601 29.028 0.95611 29.5885 1.64118 29.5885ZM9.92426 27.1596H2.82448V12.3995C2.82448 12.0881 3.01131 11.7767 3.26043 11.5899L15.0311 3.05771L26.8018 11.5276C27.0509 11.7145 27.2378 12.0259 27.2378 12.3373V27.0973H20.138V22.4264C20.138 19.6239 17.8337 17.3196 15.0311 17.3196C12.2286 17.3196 9.92426 19.6239 9.92426 22.4264V27.1596Z" fill="#090909"/>
</svg>
