<svg width="102" height="102" viewBox="0 0 102 102" fill="none" xmlns="http://www.w3.org/2000/svg">
<g filter="url(#filter0_d_3909_3913)">
<circle cx="51" cy="40" r="40" fill="#CF8E80"/>
</g>
<g filter="url(#filter1_i_3909_3913)">
<circle cx="51" cy="40" r="40" fill="#CF8E80"/>
</g>
<circle cx="51" cy="40" r="40" fill="black"/>
<path d="M63 35.1446V49.6049C63 50.9287 61.9272 52 60.6016 52C59.3005 52 58.24 50.9613 58.2033 49.6701V35.1813C58.2033 33.8615 57.1305 32.7902 55.809 32.7902C54.4874 32.7902 53.4147 33.8615 53.4147 35.1813V44.835C53.4147 48.7821 50.2128 51.9796 46.2563 51.9796H46.191C42.2386 51.9796 39.0326 48.7821 39.0326 44.835V37.6293C39.0326 36.3055 40.1054 35.2342 41.431 35.2342C42.7321 35.2342 43.7927 36.2729 43.8294 37.5642V44.7984C43.8294 46.1181 44.9021 47.1894 46.2236 47.1894C47.5452 47.1894 48.6179 46.1181 48.6179 44.7984V35.1446C48.6179 31.1976 51.8198 28 55.7763 28H55.8416C59.7981 28 63 31.1976 63 35.1446Z" fill="white"/>
<path d="M41.3984 32.8557C42.723 32.8557 43.7967 31.7833 43.7967 30.4605C43.7967 29.1378 42.723 28.0654 41.3984 28.0654C40.0738 28.0654 39 29.1378 39 30.4605C39 31.7833 40.0738 32.8557 41.3984 32.8557Z" fill="#E53E51"/>
<defs>
<filter id="filter0_d_3909_3913" x="0.090909" y="0" width="101.818" height="101.818" filterUnits="userSpaceOnUse" color-interpolation-filters="sRGB">
<feFlood flood-opacity="0" result="BackgroundImageFix"/>
<feColorMatrix in="SourceAlpha" type="matrix" values="0 0 0 0 0 0 0 0 0 0 0 0 0 0 0 0 0 0 127 0" result="hardAlpha"/>
<feOffset dy="10.9091"/>
<feGaussianBlur stdDeviation="5.45455"/>
<feComposite in2="hardAlpha" operator="out"/>
<feColorMatrix type="matrix" values="0 0 0 0 0 0 0 0 0 0 0 0 0 0 0 0 0 0 0.16 0"/>
<feBlend mode="normal" in2="BackgroundImageFix" result="effect1_dropShadow_3909_3913"/>
<feBlend mode="normal" in="SourceGraphic" in2="effect1_dropShadow_3909_3913" result="shape"/>
</filter>
<filter id="filter1_i_3909_3913" x="11" y="0" width="91.8182" height="92.7273" filterUnits="userSpaceOnUse" color-interpolation-filters="sRGB">
<feFlood flood-opacity="0" result="BackgroundImageFix"/>
<feBlend mode="normal" in="SourceGraphic" in2="BackgroundImageFix" result="shape"/>
<feColorMatrix in="SourceAlpha" type="matrix" values="0 0 0 0 0 0 0 0 0 0 0 0 0 0 0 0 0 0 127 0" result="hardAlpha"/>
<feOffset dx="11.8182" dy="25.4545"/>
<feGaussianBlur stdDeviation="6.36364"/>
<feComposite in2="hardAlpha" operator="arithmetic" k2="-1" k3="1"/>
<feColorMatrix type="matrix" values="0 0 0 0 1 0 0 0 0 1 0 0 0 0 1 0 0 0 0.52 0"/>
<feBlend mode="normal" in2="shape" result="effect1_innerShadow_3909_3913"/>
</filter>
</defs>
</svg>
