<svg width="35" height="32" viewBox="0 0 35 32" fill="none" xmlns="http://www.w3.org/2000/svg">
<path d="M15.9874 24.8441C16.238 24.8441 16.4784 24.7446 16.6556 24.5674C16.8328 24.3902 16.9323 24.1498 16.9323 23.8992V22.0976H17.7008C18.3633 22.0972 19.0108 21.9004 19.5614 21.5321C20.1121 21.1639 20.5413 20.6407 20.7948 20.0286C21.0482 19.4165 21.1146 18.7431 20.9855 18.0933C20.8563 17.4435 20.5375 16.8466 20.0693 16.378C19.7588 16.0661 19.3897 15.8188 18.9832 15.6502C18.5767 15.4815 18.1409 15.3949 17.7008 15.3953H16.9323V12.485H19.452C19.7026 12.485 19.9429 12.3855 20.1201 12.2083C20.2973 12.0311 20.3969 11.7908 20.3969 11.5402C20.3969 11.2896 20.2973 11.0492 20.1201 10.872C19.9429 10.6948 19.7026 10.5953 19.452 10.5953H16.9323V8.81891C16.9323 8.56831 16.8328 8.32797 16.6556 8.15077C16.4784 7.97357 16.238 7.87402 15.9874 7.87402C15.7368 7.87402 15.4965 7.97357 15.3193 8.15077C15.1421 8.32797 15.0425 8.56831 15.0425 8.81891V10.5953H14.274C13.5984 10.5826 12.9346 10.7745 12.37 11.1457C11.8053 11.517 11.3661 12.0503 11.1099 12.6757C10.8538 13.3011 10.7927 13.9893 10.9347 14.65C11.0767 15.3107 11.4151 15.913 11.9055 16.378C12.2167 16.6881 12.5862 16.9334 12.9927 17.1C13.3993 17.2665 13.8347 17.3508 14.274 17.348H15.0425V20.1575H11.8677C11.6171 20.1575 11.3768 20.257 11.1996 20.4342C11.0224 20.6114 10.9229 20.8518 10.9229 21.1024C10.9229 21.353 11.0224 21.5933 11.1996 21.7705C11.3768 21.9477 11.6171 22.0473 11.8677 22.0473H15.0425V23.937C15.0523 24.181 15.1562 24.4117 15.3323 24.5808C15.5085 24.75 15.7432 24.8443 15.9874 24.8441ZM16.9323 17.285H17.7008C18.0875 17.2892 18.4577 17.4427 18.7339 17.7134C18.947 17.9163 19.0939 18.1788 19.1554 18.4666C19.2169 18.7544 19.1901 19.054 19.0784 19.3263C18.9668 19.5986 18.7756 19.8308 18.5298 19.9926C18.284 20.1544 17.995 20.2382 17.7008 20.2331H16.9323V17.285ZM14.274 15.3953C14.0821 15.3959 13.8919 15.3583 13.7145 15.2848C13.5372 15.2113 13.3762 15.1032 13.241 14.9669C13.1051 14.8341 12.9971 14.6753 12.9236 14.5C12.85 14.3248 12.8123 14.1365 12.8126 13.9465C12.8126 13.5589 12.9666 13.1872 13.2407 12.9131C13.5147 12.639 13.8865 12.485 14.274 12.485H15.0425V15.3953H14.274Z" fill="black"/>
<path d="M24.6538 26.4567C24.7251 26.2796 24.8478 26.1278 25.0061 26.0209C25.1644 25.914 25.351 25.8569 25.542 25.8569C25.733 25.8569 25.9196 25.914 26.0779 26.0209C26.2361 26.1278 26.3588 26.2796 26.4302 26.4567C26.4801 26.5721 26.5058 26.6964 26.5058 26.8221C26.5058 26.9478 26.4801 27.0721 26.4302 27.1874L25.6869 28.7748L31.5325 25.6504L25.7121 22.5386L26.4302 24.1134C26.4798 24.2266 26.5054 24.3489 26.5054 24.4725C26.5054 24.5961 26.4798 24.7183 26.4302 24.8315C26.3847 24.9503 26.3154 25.0585 26.2266 25.1495C26.1378 25.2405 26.0313 25.3123 25.9136 25.3607C25.6829 25.463 25.4211 25.4701 25.1852 25.3805C24.9493 25.2908 24.7583 25.1117 24.6538 24.8819L22.764 20.7622C22.6816 20.5779 22.6604 20.3721 22.7034 20.1748C22.7465 19.9776 22.8516 19.7993 23.0034 19.6662C23.1531 19.5348 23.3388 19.4513 23.5364 19.4266C23.7341 19.4019 23.9346 19.4371 24.1121 19.5276L33.9892 24.8189C34.1416 24.8977 34.2693 25.0171 34.3582 25.1638C34.4471 25.3105 34.4938 25.4789 34.4932 25.6504C34.4924 25.8217 34.4451 25.9895 34.3563 26.136C34.2676 26.2824 34.1407 26.402 33.9892 26.4819L24.1121 31.7607C23.9679 31.835 23.8081 31.8738 23.6459 31.874C23.4091 31.8788 23.1794 31.7932 23.0034 31.6347C22.8543 31.5024 22.7509 31.3264 22.7079 31.1318C22.6649 30.9372 22.6846 30.734 22.764 30.5512L24.6538 26.4567Z" fill="black"/>
<path d="M15.9874 4.96437e-06C11.7473 4.96437e-06 7.68082 1.68439 4.6826 4.68261C1.68438 7.68083 0 11.7473 0 15.9874C0 20.2275 1.68438 24.294 4.6826 27.2922C7.68082 30.2904 11.7473 31.9748 15.9874 31.9748C17.1139 31.9779 18.2374 31.8596 19.3386 31.6221C19.4807 31.5939 19.6155 31.5369 19.7347 31.4546C19.8539 31.3722 19.9549 31.2663 20.0315 31.1433C20.1502 30.9625 20.2127 30.7505 20.2111 30.5342C20.2096 30.3179 20.1441 30.1069 20.0229 29.9277C19.9016 29.7486 19.7301 29.6093 19.5299 29.5274C19.3296 29.4456 19.1097 29.4248 18.8976 29.4677C16.111 30.0642 13.2081 29.7823 10.5883 28.6608C7.96856 27.5393 5.76086 25.6333 4.26913 23.2052C2.77739 20.7771 2.07497 17.9463 2.25855 15.1025C2.44214 12.2587 3.5027 9.54169 5.29425 7.32555C7.0858 5.10941 9.52025 3.50309 12.2625 2.7277C15.0047 1.95232 17.9198 2.046 20.6066 2.99585C23.2933 3.94571 25.6196 5.70502 27.2652 8.03162C28.9107 10.3582 29.7947 13.1377 29.7953 15.9874C29.7953 16.4535 29.7953 16.9071 29.7323 17.3732C29.7142 17.5169 29.7261 17.6627 29.7673 17.8015C29.8085 17.9403 29.8781 18.069 29.9717 18.1795C30.1601 18.4005 30.4269 18.5397 30.7159 18.5679C31.005 18.5961 31.2937 18.5111 31.5213 18.3307C31.7445 18.1426 31.8884 17.8771 31.9244 17.5874C31.9244 17.0709 32 16.5291 32 15.9874C31.9983 13.8863 31.5829 11.806 30.7773 9.86543C29.9716 7.92485 28.7917 6.16195 27.3048 4.67739C25.8179 3.19282 24.0531 2.01566 22.1113 1.21311C20.1695 0.410563 18.0886 -0.00165014 15.9874 4.96437e-06Z" fill="black"/>
</svg>
