<svg width="27" height="28" viewBox="0 0 27 28" fill="none" xmlns="http://www.w3.org/2000/svg">
<path d="M25.3114 15.2913L2.95953 27.5266C2.46164 27.7967 1.84723 27.7225 1.42879 27.3359C1.01035 26.9492 0.883234 26.3401 1.11629 25.821L5.36951 16.2606C5.66612 15.5932 6.45003 15.2913 7.1174 15.5879C7.78478 15.8845 8.08669 16.6684 7.79008 17.3358L5.12586 23.321L21.9163 14.1313L5.03052 4.88864L7.79008 10.9374C8.0761 11.6101 7.7583 12.3887 7.08562 12.6747C6.41295 12.9607 5.63434 12.6429 5.34832 11.9703L1.10569 2.41509C0.883234 1.89602 1.02095 1.2922 1.43409 0.916142C1.68303 0.688385 2.00083 0.571857 2.32393 0.571857C2.54109 0.571857 2.75825 0.624825 2.95953 0.736055L25.3114 12.9713C25.7352 13.2044 26 13.6493 26 14.1313C26 14.6133 25.7352 15.0582 25.3114 15.2913Z" fill="white" stroke="white" stroke-width="0.430486"/>
</svg>
