<svg width="24" height="20" viewBox="0 0 24 20" fill="none" xmlns="http://www.w3.org/2000/svg">
<path d="M12 17.2011C5.2716 17.2011 0 14.0379 0 10.0011C0 7.82194 1.56 5.80114 4.2684 4.46074C4.55343 4.32209 4.88175 4.30184 5.18165 4.40442C5.48156 4.507 5.72871 4.72407 5.86912 5.00823C6.00954 5.2924 6.03183 5.62058 5.93112 5.92112C5.83041 6.22166 5.61489 6.47015 5.3316 6.61233C3.4692 7.53393 2.4 8.76994 2.4 10.0011C2.4 12.2715 6.3432 14.8011 12 14.8011C13.0297 14.8068 14.0576 14.714 15.0696 14.5239C15.2261 14.4888 15.3881 14.4853 15.5459 14.5138C15.7037 14.5423 15.8543 14.6021 15.9886 14.6898C16.1229 14.7774 16.2383 14.8911 16.328 15.0242C16.4176 15.1572 16.4796 15.3068 16.5104 15.4642C16.5413 15.6216 16.5402 15.7836 16.5073 15.9406C16.4745 16.0976 16.4104 16.2464 16.3191 16.3783C16.2277 16.5101 16.1108 16.6223 15.9754 16.7082C15.8399 16.7941 15.6886 16.8519 15.5304 16.8783C14.3667 17.0992 13.1844 17.2073 12 17.2011Z" fill="#6FD5FF"/>
<path d="M13.2 19.6013C12.9627 19.6012 12.7307 19.5308 12.5334 19.399C12.3361 19.2671 12.1824 19.0797 12.0916 18.8605C12.0008 18.6412 11.977 18.4 12.0233 18.1672C12.0696 17.9345 12.1838 17.7207 12.3516 17.5529L13.9032 16.0013L12.3516 14.4497C12.133 14.2233 12.012 13.9202 12.0148 13.6056C12.0175 13.291 12.1437 12.99 12.3662 12.7675C12.5887 12.545 12.8897 12.4188 13.2043 12.4161C13.5189 12.4133 13.8221 12.5343 14.0484 12.7529L16.4484 15.1529C16.6734 15.3779 16.7997 15.6831 16.7997 16.0013C16.7997 16.3195 16.6734 16.6246 16.4484 16.8497L14.0484 19.2497C13.8234 19.4747 13.5182 19.6012 13.2 19.6013Z" fill="#6FD5FF"/>
<path d="M19.2 15.6649C18.9275 15.6672 18.6624 15.5766 18.4483 15.4082C18.2341 15.2397 18.0837 15.0034 18.0217 14.738C17.9597 14.4727 17.9898 14.1942 18.1071 13.9483C18.2244 13.7024 18.422 13.5037 18.6672 13.3849C20.5308 12.4681 21.6 11.2321 21.6 10.0009C21.6 7.73054 17.6568 5.20094 12 5.20094C11.2532 5.19779 10.507 5.2459 9.7668 5.34494C9.45562 5.38102 9.14268 5.29399 8.89481 5.10243C8.64694 4.91088 8.4838 4.62999 8.44025 4.31977C8.39669 4.00956 8.47617 3.69461 8.66171 3.4422C8.84724 3.1898 9.12412 3.01995 9.4332 2.96894C10.2839 2.85351 11.1415 2.79738 12 2.80094C18.7284 2.80094 24 5.96414 24 10.0009C24 12.1801 22.44 14.2009 19.7316 15.5413C19.5662 15.6228 19.3843 15.6651 19.2 15.6649Z" fill="#6FD5FF"/>
<path d="M10.8001 7.60146C10.4818 7.6014 10.1767 7.47492 9.95166 7.24986L7.55166 4.84986C7.3267 4.62483 7.20032 4.31966 7.20032 4.00146C7.20032 3.68327 7.3267 3.3781 7.55166 3.15306L9.95166 0.753065C10.0624 0.638453 10.1948 0.547034 10.3412 0.484143C10.4876 0.421252 10.645 0.388149 10.8044 0.386764C10.9637 0.385379 11.1217 0.415741 11.2692 0.476078C11.4167 0.536415 11.5507 0.625519 11.6633 0.73819C11.776 0.850862 11.8651 0.984844 11.9254 1.13232C11.9858 1.2798 12.0161 1.43781 12.0148 1.59715C12.0134 1.75648 11.9803 1.91394 11.9174 2.06035C11.8545 2.20675 11.7631 2.33917 11.6485 2.44986L10.0969 4.00146L11.6485 5.55306C11.8162 5.72089 11.9305 5.93468 11.9768 6.16743C12.023 6.40017 11.9993 6.64141 11.9085 6.86065C11.8177 7.07989 11.6639 7.26728 11.4666 7.39915C11.2693 7.53101 11.0374 7.60141 10.8001 7.60146Z" fill="#6FD5FF"/>
</svg>
